<?xml version="1.0" encoding="UTF-8"?>
<svg id="_Layer_" data-name="&amp;lt;Layer&amp;gt;" xmlns="http://www.w3.org/2000/svg" viewBox="0 0 2975 1700">
  <defs>
    <style>
      .cls-1 {
        fill: #2e3552;
      }

      .cls-2 {
        fill: #2b478b;
      }

      .cls-3 {
        fill: #233862;
      }

      .cls-4 {
        fill: #82b378;
      }

      .cls-5 {
        fill: #ed975d;
      }

      .cls-6 {
        fill: #d86713;
      }

      .cls-7 {
        fill: #699dee;
      }

      .cls-8 {
        fill: #fff;
      }

      .cls-9 {
        fill: #ffb973;
      }

      .cls-10 {
        fill: #1e3d70;
      }

      .cls-11 {
        fill: #35488b;
      }

      .cls-12 {
        fill: #f1a34f;
      }

      .cls-13 {
        fill: #4271bc;
      }

      .cls-14 {
        fill: #4a82d3;
      }

      .cls-15 {
        fill: #2a4e96;
      }

      .cls-16 {
        fill: #e58638;
      }

      .cls-17 {
        fill: #ffb27d;
      }

      .cls-18 {
        fill: #c95c12;
      }

      .cls-19 {
        fill: #2c3a64;
      }

      .cls-20 {
        fill: #fbecdb;
      }

      .cls-21 {
        fill: #a9453d;
      }

      .cls-22 {
        fill: #ee9849;
      }

      .cls-23 {
        fill: #a8d29f;
      }

      .cls-24 {
        fill: #4a75cb;
      }
    </style>
  </defs>
  <rect class="cls-8" width="2975" height="1700"/>
  <g>
    <path class="cls-20" d="M327.57,1532.46S44.88,930.47,602.03,930.47c294.38,0,173.11-165.17,373.25-356.32,200.14-191.15,900.06-343.87,1049.04,25.25,148.97,369.12-219.19,649.37,136.56,601.29,427.51-57.77,596.39,331.77,596.39,331.77H327.57Z"/>
    <path class="cls-23" d="M2617.08,1456.08c-26.38-19.28-80.28-6.26-120.07,7.66-5.94-8.35-13.15-16.96-21.87-25.37,85.71-55.21,204.08-172.95,141.34-182.92-54.54-8.66-128.14,97.32-167.48,161.83-40.85-27.48-103.44-47.68-199-40.67-248.01,18.18-441.76-141.79-584.58-88.44-113.55,42.42-217.62,66.19-317.98,58.07,4.32-73.32,5.26-217.27-52.32-232.2-58.45-15.16-1.12,148.32,30.75,229.95-7.48-.96-14.94-2.1-22.38-3.42-20.63-40.68-54.63-93.92-91.97-95.75-35.16-1.71,8.23,46.15,50.94,86.7-122.73-25.77-268.32,74-270.74,191.96h1532.26s-2.71-17.22-14.74-39.92c59.22-1.16,136.49-6.54,107.83-27.48Z"/>
    <g>
      <rect class="cls-24" x="922.12" y="1432.31" width="403.85" height="91.19"/>
      <rect class="cls-7" x="797.6" y="1432.31" width="403.84" height="91.2"/>
    </g>
    <g>
      <g>
        <rect class="cls-6" x="1484.83" y="1103.17" width="300.71" height="420.31" transform="translate(3270.38 2626.65) rotate(180)"/>
        <rect class="cls-12" x="1392.12" y="1103.17" width="300.71" height="420.31" transform="translate(3084.94 2626.65) rotate(180)"/>
      </g>
      <polygon class="cls-18" points="1692.82 1103.17 1785.54 1166.28 1785.54 1103.17 1692.82 1103.17"/>
    </g>
    <g>
      <path class="cls-4" d="M764.56,1196.27s-56.24,41.82-67.2,39.28c-10.97-2.54,41.1-45.14,41.1-45.14-19.59-9.42-80.49-3.51-80.49-3.51,0,0-20.29,65.42-30.29,60.26-10-5.16,20.92-57.01,20.92-57.01-21.82-1.32-48.58,14.89-48.58,14.89-36.64,28.93,2.41,74.49,2.41,74.49,0,0-7.52,22.52-30.66,43.03,0,0-33.04,24.44-35.34,68.1l6,.54s9.51-40.67,26.79-59.9c.67-.7,1.65-1.7,2.85-2.91,2.82-2.61,4.79-4.56,6.11-6.02,8.6-8.26,20.48-18.79,26.21-19.81,0,0-.29-1.05-.24-2.88.08.92.16,1.87.24,2.88,1.96,23.02,46.63,43.13,74.11,47.26,27.48,4.13,18.98-7.16,9.52-23.91-9.47-16.75-39.43-24.24-46.27-31.96-6.84-7.71,7.3-7.73,23.85-.17,16.55,7.56,18.82,27.72,45.38,40.44,26.56,12.72,66.52-31.35,66.52-31.35-21.17-1.07-51.39-24.06-50.3-31.09,1.09-7.03,51.31,12.13,59.89,13.05,8.58.92,28.12-9.76,31.14-44.34,3.02-34.58-53.66-44.22-53.66-44.22Z"/>
      <g>
        <path class="cls-23" d="M465.9,1222.24s62.11-34.78,33.13-81.99c0,0-23.19-28.99-48.03-36.44,0,0,13.25,70.4,0,72.05-13.25,1.66-9.11-79.5-9.11-79.5,0,0-65.43-31.47-91.1-28.99,0,0,40.58,68.74,27.33,67.08-13.25-1.66-58.8-71.22-58.8-71.22,0,0-67.08-12.42-77.85,27.33-10.77,39.75,6.62,59.63,16.56,62.11,9.94,2.48,73.71,1.66,72.05,9.94-1.66,8.28-44.72,21.53-68.74,14.08,0,0,26.5,65.43,61.29,62.11,34.78-3.31,45.55-24.85,67.08-26.5,21.53-1.66,37.27,4.14,26.5,9.94-10.77,5.8-47.21,1.9-64.6,16.68-17.39,14.79-31.47,23.9.83,30.52,32.3,6.63,90.27,2.48,101.86-22.36l11.59-24.84Z"/>
        <path class="cls-4" d="M482.46,1282.69c-17.39-32.3-16.56-60.46-16.56-60.46-19.88-62.94-193.79-119.26-193.79-119.26,221.12,89.44,182.2,144.1,182.2,144.1,5.96,3.48,14.89,20.05,21.1,32.77.88,2.16,2.28,5.16,4.36,9.22h0c.84,1.84,1.52,3.34,1.98,4.39,11.38,28.49,5.35,77.68,5.35,77.68l6.9,1.85c15.29-49.58-11.53-90.31-11.53-90.31Z"/>
      </g>
      <g>
        <path class="cls-23" d="M564.71,1174.27s-81.88-45.85-43.67-108.08c0,0,30.57-38.21,63.32-48.03,0,0-17.47,92.79,0,94.98,17.47,2.18,12.01-104.8,12.01-104.8,0,0,86.24-41.48,120.09-38.21,0,0-53.49,90.61-36.03,88.43,17.47-2.18,77.51-93.88,77.51-93.88,0,0,88.43-16.38,102.62,36.03,14.19,52.4-8.73,78.6-21.83,81.88-13.1,3.28-97.16,2.18-94.98,13.1s58.95,28.38,90.61,18.56c0,0-34.93,86.24-80.78,81.88-45.85-4.37-60.04-32.75-88.43-34.93-28.38-2.18-49.13,5.46-34.93,13.1,14.19,7.64,62.23,2.5,85.15,21.99,22.92,19.49,41.48,31.5-1.09,40.23-42.57,8.73-118.99,3.28-134.28-29.48l-15.28-32.75Z"/>
        <path class="cls-4" d="M820.17,1017.06s-229.25,74.23-255.45,157.2c0,0,1.09,37.12-21.83,79.69,0,0-35.35,53.69-15.2,119.04l9.1-2.44s-7.95-64.84,7.06-102.39c.61-1.38,1.5-3.37,2.61-5.79h0c2.74-5.36,4.58-9.31,5.75-12.16,8.17-16.76,19.95-38.61,27.81-43.19,0,0-51.31-72.05,240.17-189.95Z"/>
      </g>
      <path class="cls-12" d="M561.96,1514.72c88.58,0,160.38-71.81,160.38-160.38h-320.76c0,88.58,71.81,160.38,160.38,160.38Z"/>
      <path class="cls-9" d="M601.42,1513.5c-6.52.81-13.17,1.23-19.93,1.23-88.57,0-160.37-71.81-160.37-160.38h39.84c0,81.83,61.28,149.34,140.46,159.16Z"/>
      <path class="cls-12" d="M704.77,1503.69h-285.62c-10.93,0-19.79,8.86-19.79,19.79h325.2c0-10.93-8.86-19.79-19.79-19.79Z"/>
      <path class="cls-6" d="M723.53,1354.34h-324.77c-1.36,0-2.46,1.1-2.46,2.46s1.1,2.46,2.46,2.46h324.77c1.36,0,2.46-1.1,2.46-2.46s-1.1-2.46-2.46-2.46Z"/>
    </g>
    <g>
      <path class="cls-5" d="M1961.13,509.78c-4.65-.71-18.66,12.25-18.66,12.25h0c-29.91,3.46-73.65,11.4-89.39,14.43-11.16,2.15-41.17-8.08-70.49-19.83-34.87-13.98-68.75-30.1-68.75-30.1-19.35-.99-41.32,34.31-2.08,56.76,5.99,3.43,28.5,9.27,54.41,14.61h0c35.75,7.36,77.98,13.76,92.36,11.51,16.7-2.61,63.97-19.9,92.09-33.15h0s.03-.01.07-.03c.11-.05.21-.1.31-.15,1.69-.79,8.57-3.85,13.16-3.58,5.27.31,17-9.33,17.36-11.9.36-2.57-15.75-10.1-20.4-10.81Z"/>
      <path class="cls-2" d="M1924.61,954.46l-16.47,3.35s-75.37-84.68-87-120.32c-6.22-19.04-46.01-27.27-87.6-38.02-36.19-9.36-73.74-20.63-91.68-42.63-38.55-47.26,24.21-105.34,24.21-105.34,0,0,66.72,39.66,124.29,80.62,40.23,28.63,75.99,57.9,81.38,74.72,13.08,40.91,40.84,118.67,52.87,147.62Z"/>
      <path class="cls-3" d="M1902.56,982.4h9.26c3.1-.49,5.39-1.39,8.58-1.8,4.83-.63,7.06,1.35,7.5,1.8.06.06.09.09.09.09h39.35c.99-1.41.04-4.69-.89-7.1-.63-1.64-1.99-2.88-3.68-3.37-4.17-1.21-12.4-2.29-19.93-9.11-4.24-3.83-20.47-14.08-20.47-14.08l-.09-.02c-.36,0-2.05.53-9.44,6.76-3.82,3.22-10.32-4.54-10.32-4.54,0,0-1.22,1.01-2.13,2.89-.73,1.49-1.27,3.53-.85,6.04.59,3.55-1.31,10.14-2.82,14.59-.92,2.7-1.69,4.62-1.69,4.62,0,0-.44,2.22,7.53,3.22Z"/>
      <path class="cls-10" d="M1790.36,732.13l-56.82,67.35c-36.19-9.36-73.74-20.63-91.68-42.63-38.55-47.26,24.21-105.34,24.21-105.34,0,0,66.72,39.66,124.29,80.62Z"/>
      <path class="cls-2" d="M1738.73,696.95s-4.58,14.44-12.04,36.17c-9.43,27.48-23.47,66.6-38.71,102.88-3.35,7.97-6.75,15.81-10.18,23.36-12.67,27.92-25.64,51.85-37.05,64.02-20.52,21.87-70.39,162.43-70.39,162.43l-12.43-3.44s-17.33-120.03,44.05-188.33c.66-.73,1.17-1.57,1.24-2.55,0,0,0-.02,0-.03.82-10.11,3.74-55.39,10.09-101.26,1.56-11.26,3.33-22.54,5.32-33.35.12-.69.26-1.38.38-2.06,9.34-50,18.28-72.24,29.82-83.42l84.86,24.16,5.02,1.43Z"/>
      <path class="cls-3" d="M1556.54,1103.08h9.26c3.1-.49,5.39-1.39,8.58-1.8,4.83-.63,7.06,1.35,7.5,1.8.06.06.09.09.09.09h39.35c.99-1.41.04-4.69-.89-7.1-.63-1.64-1.99-2.88-3.68-3.37-4.17-1.21-12.4-2.28-19.93-9.1-4.24-3.83-20.47-14.09-20.47-14.09l-.09-.02c-.36,0-2.05.53-9.44,6.76-3.82,3.22-10.32-4.54-10.32-4.54,0,0-1.22,1.01-2.13,2.89-.73,1.48-1.27,3.53-.84,6.04.59,3.55-1.31,10.14-2.82,14.59-.92,2.7-1.69,4.62-1.69,4.62,0,0-.44,2.23,7.53,3.22Z"/>
      <path class="cls-17" d="M1574.74,533.71s-14.2,34.74-30.57,68.55c-13.77,28.43-29.07,56.2-38.77,62.12-13.68,8.36-51.36,31.93-75.81,49.51,0,0-19.08-.14-22.04,3.51-2.96,3.65-9.8,20.06-7.81,21.72,2,1.66,17.16.89,20.85-2.89,3.21-3.29,10.37-5.66,12.15-6.21.11-.03.22-.07.33-.1.05-.01.08-.02.08-.02h0c29.71-9.14,76.3-28.18,90.4-37.49,12.14-8.02,39.07-41.18,60.54-70.69h0c15.57-21.4,28.27-40.87,30.39-47.44,13.9-43.01-26.11-54.32-39.75-40.56Z"/>
      <path class="cls-19" d="M1649,397.49c-1.69-2.46-3.39-4.63-5.09-6.57,2.1.04,4.38-.16,6.27-.94,4.98-2.06,7.26-17.88,6.51-22.58-.75-4.69-7.67-18.26-16.21-19.62-8.54-1.35-17.36,8.13-17.36,8.13,1.58-6.84,16.02-10.79,16.02-10.79-29.75,5.49-28.24,25.33-28.03,27.16-27.24-9.7-43.22,41.59-43.22,41.59l70.55,41.57s.18-11.33,6.92-10.6c10.5,1.14,19.23-24.64,3.65-47.35Z"/>
      <path class="cls-17" d="M1653.5,505.11c-16.19,7.63-37.67-3.36-37.55-3.48,1.39-1.39.9-5.54-.37-10.98-1.27-5.67-4.28-13.41-9.83-22.66-1.16-1.97-2.31-3.93-3.7-6.01l1.85-.69,31.45-12.6s5.09,9.13,10.41,17.46c4.51,6.94,9.25,13.18,11.33,12.95.12-.12,20.93,14.22-3.58,26.02Z"/>
      <path class="cls-5" d="M1635.34,451.81c-.81,11.21-4.62,31.45-19.77,38.85-1.27-5.67-4.28-13.41-9.83-22.66l29.6-16.19Z"/>
      <path class="cls-17" d="M1603.9,480.76s40.94-16.14,30.5-41.48c-10.44-25.34-12.19-44.49-38.77-35.26-26.58,9.23-27.65,20.98-26.22,30.29,1.43,9.31,23.57,50,34.49,46.45Z"/>
      <path class="cls-19" d="M1619.17,433.5c18.9-2.67,24.42-10.31,24.42-10.31,0,0-17.41-5-27.64-22.05,0,0-21.25-7.17-37,4.81-.96,1.25-1.65,2.71-1.99,4.44-3.61-1.18-9.04-.88-12.17,9.33-4.71,15.32,12.03,32.06,12.03,32.06,4.06-1.15-.52-14.8-1.16-22.09-.47-5.36,2.42-12.23,3.98-15.49,2,2.6,21.95,27.66,46.3,28.66,0,0-12.86-4.46-24.57-13.19,5.82,2.86,12.01,4.65,17.79,3.83Z"/>
      <path class="cls-7" d="M1731.45,557.33c-.35-1.22-.72-2.49-1.11-3.79,6.08-11.62,9.07-22.1,10.33-30.96,2.78-18.73-1.96-30.29-1.96-30.29,0,0-28.4-15.06-40.94-16.98-.05-.02-.11-.04-.16-.05-.15-.02-.32-.04-.5-.05-12.66-1.75-40.06,3.85-40.06,3.85,0,0,5.29,14.07-9.63,23.46-14.91,9.38-30.84-2.4-30.84-2.4-.48.32-.99.68-1.52,1.05,0,0,0,0,0,0,0,0-39.24,25.89-42.77,31.81-3.52,5.92-18.62,35.21-18.62,35.21,0,0,4.79,24.6,57.8,26.65,4.36,10.57,7.69,20.88,8.78,29.48,4.21,33.39-.68,59.72,4.23,79.21,4.91,19.49,93.36,8.38,109.38,4.63,16.02-3.75,12.41-20.85,13.65-37.47,1.55-20.88-10.84-94.93-16.06-113.35Z"/>
      <path class="cls-14" d="M1740.67,522.57c-1.27,8.9-4.28,19.42-10.41,31.1-1.39-6.13-7.05-28.56-16.19-38.73,0,0,15.38,1.39,26.59,7.63Z"/>
    </g>
    <g>
      <path class="cls-5" d="M1380.52,741.38s16.48-19.97,20.03-22.33c3.55-2.36,19.11-6.5,20-5.67.89.83.93,2.04-1,3.74-1.93,1.7-9.29,6-8.24,6.48,1.05.48,23.26-10.57,26.46-6.85,3.2,3.72-1.81,19.07-10.37,26.43s-34.1,10.5-35.71,11.52c-13.62,8.71-11.17-13.33-11.17-13.33Z"/>
      <path class="cls-17" d="M1090.39,695.27s23.67,28.09,53.82,16.34c0,0,6.49-15.69,6.58-27.25,0-1.42.03-2.8.05-4.11.16-13.02.6-20.33.6-20.33,0,0,0,0-.03,0-1.37-.57-46.09-18.93-46.05-17.41.77,35.22-14.97,52.76-14.97,52.76Z"/>
      <path class="cls-5" d="M1109.85,650.9c4.31,7.99,19.11,23.63,40.99,29.34.16-13.02.6-20.33.6-20.33,0,0,0,0-.03,0-1.24-.33-42.84-11.36-41.56-9.01Z"/>
      <path class="cls-17" d="M1160.81,658.56s-50.29,11.82-57.17-19.61c-6.88-31.43-18-51.07,13.81-59.95,31.82-8.88,40.7,1.75,45.55,11.68,4.85,9.93,10.71,63.99-2.19,67.88Z"/>
      <path class="cls-21" d="M1105.36,647.52c-.69.44-11.51,3.76-32-37.06-3.22-6.41-5.41-20.27,2.09-32.52,7.5-12.25,34.09-21.88,56.18-26.07,22.09-4.19,27.39,8.24,32.6,20.73,5.46,13.11,21.23,23.91,21.23,23.91-19.05,10.64-41.99-4.58-49.94-2.08-7.95,2.5-10.76,15.03-11.35,19.05-.6,4.01-1.51,7.35-11.51,3.76-10-3.59-4.52,14.17-2.92,17.56,0,0,1.36,9.04-4.37,12.71Z"/>
      <g>
        <path class="cls-19" d="M975.82,1432.31h-30.45c-6.38,0-13.48-6.48-15.25-18.33-1.78-11.87-14.9-18.33-17.74-28.04-2.84-9.71,11.71-23.37,11.71-23.37l2.43-3.17,2.53-3.3,24.12,5.75s.59,5.82.97,13.23c.26,5.35.4,11.54.1,16.97-.71,12.95,3.58,26.88,14.92,29.4,11.35,2.52,6.66,10.87,6.66,10.87Z"/>
        <path class="cls-19" d="M1187.79,1432.6h-80.71c-.77-.16-1.36-.33-1.71-.51-5.39-2.78-3.7-24.02-3.05-30.58.12-1.21.21-1.93.21-1.93,0,0,28.38-23.37,32.29-5.48.12.56.27,1.11.42,1.65h0c4.93,16.75,26.95,24.36,39.67,26.48,9.72,1.63,12.24,7.46,12.89,10.37Z"/>
        <path class="cls-22" d="M1171.53,965.85s-4.31,53.78-9.38,118.42c-6.89,87.82-15.17,195.68-15.99,216.11-1.42,35.48-7.1,92.24-7.1,92.24,0,0-13.47,13.48-40.44,7.8,0,0-24.03-81.02-30.9-166.75-.11-1.41-.21-2.82-.32-4.24-6.38-87.27-16.32-271.04-16.32-271.04l120.43,7.45Z"/>
        <path class="cls-16" d="M1171.53,965.85s-4.31,53.78-9.38,118.42l-94.42,149.41c-.11-1.41-.21-2.82-.32-4.24-6.38-87.27-16.32-271.04-16.32-271.04l120.43,7.45Z"/>
        <path class="cls-22" d="M1151.84,972.24s-77.69,194.76-128.78,286.29c-51.09,91.53-67.05,117.07-67.05,117.07,0,0-29.27-11.71-31.93-19.69,0,0,19.54-176.7,53.75-219.78,19.33-24.34,42.04-97.38,43.1-122.92,1.06-25.54,6.92-76.1,6.92-76.1l123.99,35.12Z"/>
      </g>
      <g>
        <path class="cls-5" d="M973.96,939.8s-2.01,24.32-3.49,28.06c-1.47,3.73-11.3,15.31-12.43,15.15s-1.82-1.08-1.24-3.43c.58-2.36,3.96-9.64,2.89-9.45-1.07.19-12.32,20.7-16.79,19.54-4.48-1.16-8.86-15.74-6.19-26.04,2.67-10.3,20.75-26.47,21.44-28.13,5.86-14.07,15.82,4.3,15.82,4.3Z"/>
        <path class="cls-10" d="M965.62,945.97c8.6,2.76,9.98,2.14,9.98,2.14,0,0,41.85-76.2,46.09-83.18,4.24-6.98,88.87-85.45,88.87-85.45l-21.75-81.1s-96.25,124.64-106.65,142.53c-17.18,29.55-27.24,98.2-27.24,98.2,0,0,3.94,4.7,10.7,6.87Z"/>
      </g>
      <path class="cls-15" d="M1187.93,811.32c-.3,16.66-1.27,35.38-2.57,54.39-.08,1.13-.16,2.26-.24,3.38-.84,11.78-1.74,23.59-2.78,35.1-.42,4.62-.86,9.18-1.32,13.66l-.07.6c-.04,1.68-.24,3.5-.43,5.16-4.24,43.13-8.69,77.2-9.52,77.72-.99.66-2.1.99-3.31.84-11.31-1.42-45.05,1.15-72.68-4.87-23.31-4.92-43.38-14.24-64.66-26.81-2.82-1.67-9.26-6.09-8.74-9.39.51-3.63,1.46-8.88,2.67-15.47,4.19-22.94,11.42-62.4,13.89-108.58.48-8.6,1.18-17.1,2.09-25.45,2.37-21.76,6.17-42.43,11.27-60.79,9.47-34.11,23.39-60.22,40.85-70.44,2.28-1.28,14.56,6.53,25.83,13.77,10.41,6.68,21.38,8.52,32.04,7.59l9.38,10.38c11.36,13.21,23.46,30.8,26.77,55.79.25,1.85.46,3.81.64,5.89.92,10.18,1.14,23.07.88,37.51Z"/>
      <path class="cls-10" d="M1187.93,811.32c-.3,16.66-1.27,35.38-2.57,54.39-.08,1.13-.16,2.26-.24,3.38-64.6-40.44-74.55-114.43-74.55-114.43,31.78,1.39,57.03,8.7,76.49,19.15.92,10.18,1.14,23.07.88,37.51Z"/>
      <path class="cls-15" d="M1390.33,743.38c-3.33-9.01-8.51-8.42-8.51-8.42,0,0-96.05,23.94-104.67,24.96-8.62,1.03-103.43-37.02-103.43-37.02,0,0-37.32-16.75-54.8-1.46-15.19,13.29-15.88,30.12-12.33,44.26,4.24,16.85,18.49,29.29,35.72,31.49,38.68,4.93,115.86,14.2,132.03,11.95,36-5.01,117.58-52.1,117.58-52.1,0,0,1.02-6.59-1.59-13.66Z"/>
    </g>
    <g id="man">
      <g>
        <path class="cls-19" d="M2337.46,919.43s13.34,12.37,10.74,21.16c-2.6,8.79-14.65,14.65-16.27,25.39-1.63,10.74-8.14,16.6-14,16.6h-27.93s-4.31-7.56,6.1-9.84c10.42-2.28,14.34-14.9,13.69-26.62-.65-11.72.98-27.34.98-27.34l22.13-5.21,4.56,5.86Z"/>
        <path class="cls-19" d="M2171.14,981.11c-1.35.68-6.11,1.15-12.64,1.46h-63.16c.21-1.88,1.68-8.58,12.01-10.24,11.67-1.9,31.88-8.68,36.39-23.6.15-.48.28-.97.39-1.46,3.58-15.95,29.61,4.88,29.61,4.88,0,0,.08.64.19,1.73.61,5.86,2.15,24.78-2.79,27.24Z"/>
        <path class="cls-11" d="M2110.44,554.54s3.95,49.34,8.6,108.65c6.32,80.57,13.92,179.53,14.67,198.28,1.3,32.55,6.51,84.63,6.51,84.63,0,0,12.36,12.37,37.11,7.16,0,0,22.05-74.34,28.35-152.99.1-1.29.2-2.59.29-3.89,5.86-80.07,14.97-248.67,14.97-248.67l-110.49,6.83Z"/>
        <path class="cls-19" d="M2110.44,554.54s3.95,49.34,8.6,108.65l86.63,137.07c.1-1.29.2-2.59.29-3.89,5.86-80.07,14.97-248.67,14.97-248.67l-110.49,6.83Z"/>
        <path class="cls-11" d="M2128.5,560.4s71.28,178.69,118.15,262.66c46.87,83.97,61.52,107.41,61.52,107.41,0,0,26.85-10.74,29.29-18.06,0,0-17.92-162.12-49.31-201.63-17.74-22.33-38.57-89.34-39.54-112.78-.98-23.43-6.35-69.82-6.35-69.82l-113.75,32.22Z"/>
      </g>
      <g>
        <path class="cls-17" d="M1908.64,463.48s-19.33-4.42-22.59-4.2c-3.25.22-14.64,4.99-14.79,5.91-.15.92.39,1.67,2.35,1.81,1.97.13,8.44-.7,8.03.09-.41.78-19.06,4.45-19.26,8.2-.21,3.75,10.01,10.73,18.64,11.2,8.63.47,25.6-9.56,27.06-9.69,12.34-1.08.55-13.31.55-13.31Z"/>
        <path class="cls-16" d="M1900.37,468.39c-2.77-8.83-2.12-10.24-2.12-10.24,0,0,78.37-42.38,85.55-46.68,7.18-4.3,88.17-90.49,88.17-90.49l82.96,22.83s-128.38,97.79-146.78,108.33c-30.4,17.4-100.81,27.25-100.81,27.25,0,0-4.79-4.07-6.97-11.01Z"/>
      </g>
      <path class="cls-17" d="M2097.1,279.09s-29.08,51.17-57.51,57.85c0,0,1.18-17.19,8.11-28.95-2.83-3.34-5.32-6.41-7.48-9.16-7.16-9.17-10.56-14.78-10.56-14.78l9.65-25.94,6.55-17.6c3.15,5.71,6.61,10.58,10.23,14.74,18.63,21.42,41.02,23.84,41.02,23.84Z"/>
      <path class="cls-5" d="M2056.08,255.25s3.47,25.64-15.87,43.58c-7.16-9.17-10.56-14.78-10.56-14.78l9.65-25.94c10.34-3.15,16.78-2.86,16.78-2.86Z"/>
      <path class="cls-17" d="M2021.99,287.83s43.46-16.94,32.49-43.84c-10.97-26.9-12.74-47.2-40.95-37.52-28.21,9.68-29.38,22.13-27.9,32,1.48,9.87,24.78,53.08,36.37,49.37Z"/>
      <path class="cls-22" d="M2246.47,541.68c-17.53,25.2-148.59,58.88-147.04,41.43.59-6.68,1.39-18.45-.02-34.41-.33-3.74-.79-7.7-1.39-11.89-3.33-22.92-11.24-52.4-28.88-86.51-1.32-2.56-2.7-5.13-4.13-7.74-7.26-13.21-13.45-27.17-18.17-40.83-9.08-26.24-12.74-51.35-8.16-67.76.02-.08.05-.15.07-.23,27.4-12.67,38.01-61.8,38.01-61.8,0,0,93.47,16.78,145.82,141.37,0,0,39.13,106.43,23.88,128.37Z"/>
      <path class="cls-16" d="M2099.41,548.71c-.33-3.74-.79-7.7-1.39-11.89-3.33-22.92-11.24-52.4-28.88-86.51,3.03-18.36,7.21-33.63,11.8-40.5,18.64-27.94,29.5-32.3,29.5-32.3,0,0,27.96,117.89-11.03,171.2Z"/>
      <g>
        <path class="cls-17" d="M1952.08,520.66s-25.86,1.36-29.86,2.8c-4.01,1.44-16.6,11.49-16.46,12.7.14,1.21,1.09,1.96,3.6,1.43,2.52-.54,10.35-3.89,10.11-2.76-.24,1.13-22.34,12.4-21.26,17.18,1.08,4.79,16.4,9.89,27.41,7.4,11.01-2.5,28.73-21.16,30.51-21.84,15.11-5.76-4.06-16.91-4.06-16.91Z"/>
        <path class="cls-22" d="M1947.2,530.46c-5.18-8.37-1.45-12.19-1.45-12.19,0,0,79.87-62.54,86.13-68.86,6.26-6.32,35.26-106.92,35.26-106.92,0,0,9.98-40.71,33.36-45.2,20.31-3.9,34.35,6.15,43.54,17.93,10.95,14.04,12.02,33.4,2.94,48.71-20.39,34.36-61.53,102.58-73.55,114.23-26.74,25.94-116.2,62.18-116.2,62.18,0,0-5.97-3.32-10.04-9.89Z"/>
      </g>
      <path class="cls-2" d="M2060.72,194.02c.3-.6,1.19-1.24,3.35-1.9,0,0-2.02-.68-4.38-.16-1.22-2.98-4.18-8.05-9.75-8.09,0,0,3.19.83,4.37,4.02-7.62-4.83-21.75-6.23-57.02,5.51-46.48,15.48-23.26,42.47-16.22,44.63,7.05,2.16,20.02-11.72,31.68-13.62,11.66-1.9,17.98,14.35,22.42,15.7,4.45,1.35,1.92-2.35,6.58-6.05,4.66-3.7,7.33,5.01,7.23,11.13-.1,6.12,8.98,11.92,8.98,11.92l5.33-9.77c5.33-9.77,3.88-45.23-1.21-51.62-.45-.56-.9-1.14-1.36-1.71Z"/>
    </g>
    <path class="cls-1" d="M199.58,1523.48h2624.63c1.91,0,3.46,1.55,3.46,3.46v2.47c0,1.91-1.55,3.46-3.46,3.46H199.58c-1.91,0-3.46-1.55-3.46-3.46v-2.47c0-1.91,1.55-3.46,3.46-3.46Z"/>
    <polygon class="cls-13" points="1325.96 1431.28 1325.96 1483.89 1201.44 1431.28 1325.96 1431.28"/>
    <rect class="cls-24" x="1979.83" y="982.57" width="411.82" height="540.91"/>
    <rect class="cls-7" x="1852.84" y="982.58" width="411.83" height="540.91"/>
    <polygon class="cls-13" points="2391.65 982.58 2391.65 1063.46 2264.67 982.58 2391.65 982.58"/>
  </g>
</svg>