<?xml version="1.0" encoding="UTF-8"?>
<svg xmlns="http://www.w3.org/2000/svg" viewBox="0 0 2200.58 1452.53">
  <defs>
    <style>
      .cls-1 {
        fill: #282e31;
      }

      .cls-2 {
        fill: #d6e2ea;
      }

      .cls-3 {
        fill: #dadada;
      }

      .cls-4 {
        fill: #424b51;
      }

      .cls-5 {
        stroke: #36a9e1;
      }

      .cls-5, .cls-6 {
        stroke-width: 5.91px;
      }

      .cls-5, .cls-6, .cls-7, .cls-8, .cls-9, .cls-10, .cls-11, .cls-12, .cls-13, .cls-14, .cls-15, .cls-16, .cls-17, .cls-18, .cls-19 {
        fill: none;
        stroke-miterlimit: 10;
      }

      .cls-5, .cls-6, .cls-8, .cls-10, .cls-11, .cls-13, .cls-14, .cls-15, .cls-16, .cls-17, .cls-18 {
        stroke-linecap: round;
      }

      .cls-20 {
        fill: #d6eefd;
      }

      .cls-21 {
        fill: #cde4f2;
      }

      .cls-22 {
        fill: #97bbcf;
      }

      .cls-23 {
        fill: #fff;
      }

      .cls-24 {
        fill: #f7a941;
      }

      .cls-25 {
        fill: #a4d0e9;
      }

      .cls-26 {
        fill: #e2f3fe;
      }

      .cls-27 {
        fill: #042236;
      }

      .cls-28 {
        fill: #60c6f2;
      }

      .cls-29 {
        fill: #3d464b;
      }

      .cls-6 {
        stroke: #fff;
      }

      .cls-30 {
        fill: #093b59;
      }

      .cls-31 {
        fill: #e3eff7;
      }

      .cls-7 {
        stroke: #f08300;
      }

      .cls-7, .cls-8 {
        stroke-width: 3.19px;
      }

      .cls-32 {
        fill: #6dc6d4;
      }

      .cls-33 {
        fill: #f08300;
      }

      .cls-34 {
        fill: #99c2d8;
      }

      .cls-35 {
        isolation: isolate;
      }

      .cls-36 {
        fill: #004b81;
      }

      .cls-37 {
        fill: #d3e2ec;
      }

      .cls-37, .cls-38 {
        mix-blend-mode: multiply;
      }

      .cls-8 {
        stroke: #00939f;
      }

      .cls-39 {
        fill: #262c2f;
      }

      .cls-40 {
        fill: #57c4f2;
      }

      .cls-41 {
        fill: #06283f;
      }

      .cls-9 {
        stroke: #c3d2db;
        stroke-width: 4.27px;
      }

      .cls-38 {
        fill: #b1ccdc;
      }

      .cls-10, .cls-11, .cls-17 {
        stroke-width: 1.45px;
      }

      .cls-10, .cls-13 {
        stroke: #093b59;
      }

      .cls-11, .cls-14, .cls-15 {
        stroke: #e9a37c;
      }

      .cls-12 {
        stroke: #99c2d8;
      }

      .cls-12, .cls-19 {
        stroke-width: 19.67px;
      }

      .cls-42 {
        fill: #bdced9;
      }

      .cls-13, .cls-14 {
        stroke-width: 1.27px;
      }

      .cls-43 {
        fill: #00467a;
      }

      .cls-44 {
        fill: #042439;
      }

      .cls-45 {
        fill: #0082ae;
      }

      .cls-46 {
        fill: #1d71b8;
      }

      .cls-47 {
        fill: #e6332a;
      }

      .cls-48 {
        fill: #2f363a;
      }

      .cls-49 {
        fill: #c3d2db;
      }

      .cls-15 {
        stroke-width: 1.92px;
      }

      .cls-50 {
        fill: #c6c6c6;
      }

      .cls-51 {
        fill: #f9c6bf;
      }

      .cls-52 {
        fill: #d0d0d0;
      }

      .cls-53 {
        fill: #45babd;
      }

      .cls-16 {
        stroke: #000f1e;
        stroke-width: 2.58px;
      }

      .cls-54 {
        fill: #0068b3;
      }

      .cls-55 {
        fill: #afdff9;
      }

      .cls-17 {
        stroke: #e9aba3;
      }

      .cls-18 {
        stroke: #1ba0b5;
        stroke-width: 2.55px;
      }

      .cls-56 {
        fill: #07304a;
      }

      .cls-57 {
        fill: #454f56;
      }

      .cls-19 {
        stroke: #afdff9;
      }
    </style>
  </defs>
  <g class="cls-35">
    <g id="Capa_1" data-name="Capa 1">
      <g>
        <g>
          <path class="cls-45" d="M1979.15,269.48c0,148.83-120.66,269.49-269.48,269.49s-269.49-120.67-269.49-269.49S1560.83,0,1709.67,0s269.48,120.65,269.48,269.48Z"/>
          <path class="cls-23" d="M1942.93,269.48c0,128.82-104.42,233.28-233.26,233.28s-233.26-104.45-233.26-233.28,104.43-233.26,233.26-233.26,233.26,104.44,233.26,233.26Z"/>
          <path class="cls-43" d="M1721.55,257.59c0,6.57-5.32,11.88-11.88,11.88h0c-6.56,0-11.88-5.32-11.88-11.88V124.25c0-6.55,5.31-11.87,11.88-11.87h0c6.55,0,11.88,5.32,11.88,11.87v133.34Z"/>
          <path class="cls-43" d="M1713.62,288.05c-6.33-5.18-8.09-13.49-3.94-18.58h0c4.15-5.09,12.64-5,18.98.17l128.68,105.15c6.33,5.19,8.1,13.5,3.94,18.59h0c-4.15,5.08-12.64,5-18.98-.18l-128.68-105.15Z"/>
          <path class="cls-54" d="M1738.43,269.48c0,15.89-12.87,28.76-28.76,28.76s-28.76-12.87-28.76-28.76,12.88-28.76,28.76-28.76,28.76,12.88,28.76,28.76Z"/>
        </g>
        <g>
          <g>
            <path class="cls-3" d="M1046.7,1283.2h-314.37s82.2-20.39,82.2-44.39v-305.68h149.98v305.68c0,35.99,82.19,44.39,82.19,44.39Z"/>
            <path class="cls-2" d="M1402.47,1160.49c0,19.88-16.13,35.99-36.01,35.99H412.59c-19.87,0-36.01-16.11-36.01-35.99V483.77c0-19.88,16.13-36,36.01-36h953.87c19.88,0,36.01,16.12,36.01,36v676.72Z"/>
            <path class="cls-40" d="M1383.27,1037.52c0,15.74-15.52,28.51-34.65,28.51H430.45c-19.14,0-34.66-12.77-34.66-28.51V501.26c0-15.75,15.52-28.53,34.66-28.53h918.17c19.13,0,34.65,12.79,34.65,28.53v536.26Z"/>
            <path class="cls-39" d="M376.58,1084.03v76.46c0,19.88,16.13,35.99,36.01,35.99h953.87c19.88,0,36.01-16.11,36.01-35.99v-76.46H376.58Z"/>
            <rect class="cls-50" x="732.33" y="1283.2" width="314.37" height="22.81"/>
          </g>
          <g>
            <rect class="cls-20" x="450.67" y="333.91" width="881.34" height="669.19"/>
            <g>
              <g>
                <rect class="cls-23" x="469.89" y="350.3" width="847.17" height="59.09"/>
                <path class="cls-3" d="M1289.77,365.39c-5.03-6.03-14.22-6.97-20.46-2.09-6.23,4.89-7.2,13.77-2.16,19.8,4.51,5.39,12.3,6.71,18.36,3.45.04.05.07.09.1.15l10.43,12.48c.88,1.04,2.46,1.21,3.57.36,1.07-.85,1.24-2.39.36-3.44l-10.43-12.48s-.09-.08-.12-.12c4.56-5.06,4.86-12.71.35-18.11ZM1285.34,382.48c-4.68,3.68-11.58,2.96-15.39-1.58-3.77-4.54-3.06-11.21,1.64-14.89,4.69-3.68,11.59-2.97,15.39,1.57,3.79,4.55,3.05,11.22-1.64,14.9Z"/>
              </g>
              <rect class="cls-23" x="496.95" y="449.98" width="541.08" height="348.83"/>
              <rect class="cls-28" x="508.34" y="461.35" width="518.27" height="293.33"/>
              <g>
                <path class="cls-21" d="M969.16,776.55c0,6.33-5.12,11.44-11.43,11.44h-376.46c-6.31,0-11.43-5.11-11.43-11.44h0c0-6.31,5.13-11.44,11.43-11.44h376.46c6.31,0,11.43,5.12,11.43,11.44h0Z"/>
                <path class="cls-47" d="M723.91,769.28h-138.21c-5.39,0-9.77,3.26-9.77,7.28s4.38,7.29,9.77,7.29h138.21v-14.56Z"/>
                <g>
                  <polygon class="cls-21" points="508.34 788.87 508.34 764.26 523.83 776.55 508.34 788.87"/>
                  <rect class="cls-21" x="535.68" y="764.26" width="6.57" height="24.61"/>
                  <rect class="cls-21" x="546.63" y="764.26" width="6.57" height="24.61"/>
                </g>
                <g>
                  <polygon class="cls-21" points="988.28 773.01 988.28 765.37 1002.01 765.37 1002.01 761.41 984.13 761.41 984.13 773.01 988.28 773.01"/>
                  <polygon class="cls-21" points="1021.15 773.01 1025.29 773.01 1025.29 761.41 1007.43 761.41 1007.43 765.37 1021.15 765.37 1021.15 773.01"/>
                  <polygon class="cls-21" points="1021.15 779.81 1021.15 787.75 1007.43 787.75 1007.43 791.71 1025.29 791.71 1025.29 779.81 1021.15 779.81"/>
                  <polygon class="cls-21" points="988.28 779.81 984.13 779.81 984.13 791.71 1002.01 791.71 1002.01 787.75 988.28 787.75 988.28 779.81"/>
                </g>
              </g>
              <path class="cls-23" d="M1283,948.61c0,10.85-9.57,19.64-21.37,19.64h-181.26c-11.8,0-21.36-8.79-21.36-19.64v-479.01c0-10.85,9.57-19.62,21.36-19.62h181.26c11.81,0,21.37,8.77,21.37,19.62v479.01Z"/>
              <rect class="cls-22" x="1075.7" y="475.59" width="190.62" height="132.42"/>
              <g>
                <polygon class="cls-49" points="1161.62 561.37 1161.62 516.54 1193.59 538.97 1161.62 561.37"/>
                <path class="cls-9" d="M1215.39,538.97c0,24.51-19.88,44.38-44.38,44.38s-44.38-19.87-44.38-44.38,19.87-44.4,44.38-44.4,44.38,19.88,44.38,44.4Z"/>
              </g>
              <rect class="cls-22" x="1075.7" y="631.83" width="190.62" height="132.43"/>
              <g>
                <polygon class="cls-49" points="1161.62 717.63 1161.62 672.78 1193.59 695.2 1161.62 717.63"/>
                <path class="cls-9" d="M1215.39,695.2c0,24.52-19.88,44.38-44.38,44.38s-44.38-19.86-44.38-44.38,19.87-44.4,44.38-44.4,44.38,19.89,44.38,44.4Z"/>
              </g>
              <rect class="cls-22" x="1075.7" y="788.07" width="190.62" height="132.42"/>
              <g>
                <polygon class="cls-49" points="1161.62 873.86 1161.62 829.02 1193.59 851.44 1161.62 873.86"/>
                <path class="cls-9" d="M1215.39,851.44c0,24.51-19.88,44.38-44.38,44.38s-44.38-19.87-44.38-44.38,19.87-44.38,44.38-44.38,44.38,19.86,44.38,44.38Z"/>
              </g>
              <rect class="cls-22" x="523.83" y="829.02" width="487.11" height="25.26"/>
              <rect class="cls-22" x="523.83" y="873.86" width="487.11" height="25.26"/>
              <rect class="cls-22" x="523.83" y="918.69" width="487.11" height="25.27"/>
            </g>
          </g>
        </g>
        <g>
          <rect class="cls-46" x="1177.44" y="622.44" width="836.07" height="667.78"/>
          <path class="cls-23" d="M1991.14,1266.45h-389.8v-615.26s7.31-53.48,66.89-53.48h322.91v668.74Z"/>
          <path class="cls-55" d="M1991.14,1265.89h-389.8s7.31-50.17,66.89-50.17h322.91v50.17Z"/>
          <line class="cls-19" x1="1650.98" y1="694.93" x2="1804.22" y2="694.93"/>
          <line class="cls-19" x1="1650.98" y1="734.13" x2="1804.22" y2="734.13"/>
          <line class="cls-19" x1="1650.98" y1="773.33" x2="1804.22" y2="773.33"/>
          <line class="cls-19" x1="1650.98" y1="812.53" x2="1945.78" y2="812.53"/>
          <line class="cls-19" x1="1650.98" y1="851.73" x2="1945.78" y2="851.73"/>
          <line class="cls-19" x1="1650.98" y1="890.94" x2="1945.78" y2="890.94"/>
          <line class="cls-19" x1="1650.98" y1="930.13" x2="1787.4" y2="930.13"/>
          <line class="cls-19" x1="1650.98" y1="988.16" x2="1945.78" y2="988.16"/>
          <line class="cls-19" x1="1650.98" y1="1027.35" x2="1945.78" y2="1027.35"/>
          <line class="cls-19" x1="1650.98" y1="1066.56" x2="1945.78" y2="1066.56"/>
          <line class="cls-19" x1="1650.98" y1="1105.75" x2="1787.4" y2="1105.75"/>
          <rect class="cls-55" x="1831.31" y="683.95" width="114.47" height="98.77"/>
          <path class="cls-26" d="M1211.54,1266.45h389.8v-615.26s-7.3-53.48-66.9-53.48h-322.9v668.74Z"/>
          <path class="cls-25" d="M1211.54,1265.89h389.8s-7.3-50.17-66.9-50.17h-322.9v50.17Z"/>
          <line class="cls-12" x1="1325.11" y1="694.93" x2="1256.91" y2="694.93"/>
          <line class="cls-12" x1="1551.7" y1="734.13" x2="1256.91" y2="734.13"/>
          <line class="cls-12" x1="1551.7" y1="773.33" x2="1256.91" y2="773.33"/>
          <line class="cls-12" x1="1551.7" y1="812.53" x2="1256.91" y2="812.53"/>
          <line class="cls-12" x1="1393.32" y1="851.73" x2="1256.91" y2="851.73"/>
          <line class="cls-12" x1="1393.32" y1="890.94" x2="1256.91" y2="890.94"/>
          <line class="cls-12" x1="1393.32" y1="930.13" x2="1256.91" y2="930.13"/>
          <line class="cls-12" x1="1551.7" y1="988.16" x2="1256.91" y2="988.16"/>
          <line class="cls-12" x1="1551.7" y1="1027.35" x2="1256.91" y2="1027.35"/>
          <line class="cls-12" x1="1551.7" y1="1066.56" x2="1256.91" y2="1066.56"/>
          <line class="cls-12" x1="1393.32" y1="1105.75" x2="1256.91" y2="1105.75"/>
          <rect class="cls-34" x="1425.18" y="841.54" width="126.52" height="98.79"/>
        </g>
      </g>
      <g>
        <line class="cls-5" x1="1266.31" y1="59.88" x2="1266.31" y2="27.87"/>
        <line class="cls-5" x1="1250.31" y1="43.87" x2="1282.31" y2="43.87"/>
      </g>
      <g>
        <line class="cls-5" x1="2181.62" y1="638.44" x2="2181.62" y2="606.43"/>
        <line class="cls-5" x1="2165.61" y1="622.43" x2="2197.62" y2="622.43"/>
      </g>
      <g>
        <line class="cls-5" x1="2065.36" y1="75.88" x2="2065.36" y2="43.87"/>
        <line class="cls-5" x1="2049.36" y1="59.88" x2="2081.37" y2="59.88"/>
      </g>
      <g>
        <line class="cls-6" x1="1186.82" y1="415.58" x2="1186.82" y2="383.56"/>
        <line class="cls-6" x1="1170.82" y1="399.57" x2="1202.83" y2="399.57"/>
      </g>
      <g>
        <line class="cls-5" x1="732.33" y1="230.17" x2="732.33" y2="198.17"/>
        <line class="cls-5" x1="716.34" y1="214.17" x2="748.34" y2="214.17"/>
      </g>
      <g>
        <line class="cls-5" x1="271.73" y1="230.18" x2="271.73" y2="198.17"/>
        <line class="cls-5" x1="255.73" y1="214.17" x2="287.73" y2="214.17"/>
      </g>
      <g>
        <line class="cls-5" x1="192.2" y1="602.29" x2="192.2" y2="570.28"/>
        <line class="cls-5" x1="176.2" y1="586.29" x2="208.2" y2="586.29"/>
      </g>
      <g>
        <line class="cls-5" x1="18.96" y1="946.13" x2="18.96" y2="914.12"/>
        <line class="cls-5" x1="2.96" y1="930.13" x2="34.96" y2="930.13"/>
      </g>
      <ellipse class="cls-38" cx="1317.06" cy="1297.7" rx="748.31" ry="49.52"/>
      <path class="cls-37" d="M2181.62,1398.57c0,12.16-92.87,22.03-207.42,22.03s-207.41-9.87-207.41-22.03,92.86-22.03,207.41-22.03,207.42,9.86,207.42,22.03Z"/>
      <path class="cls-37" d="M634.93,1430.51c0,12.16-114.52,22.02-255.79,22.02s-255.77-9.86-255.77-22.02,114.51-22.03,255.77-22.03,255.79,9.87,255.79,22.03Z"/>
      <g>
        <path class="cls-24" d="M1253.67,1183.54c-2.64-5.76-14.47-44.1-39.9-107.85-6.08-15.23-28.57-133.53,8.11-124.8,36.68,8.73,100.83,84.23,103.84,136.35,3.03,52.11-69.41,102.08-72.05,96.3Z"/>
        <path class="cls-7" d="M1246.59,1112.78c4.44-17.86,23.12-56.14,43.08-60.63"/>
        <polygon class="cls-48" points="1276.32 1230.27 1020.25 1230.27 1056.49 1141.86 1235.17 1130.86 1276.32 1230.27"/>
        <path class="cls-51" d="M949.1,1037.36c8.52-1.94,15.73-6.48,23.37-10.07-7.12-7.67-13.82-18.99-18.28-35.72-3.4-12.73-1.99-21-3.42-25.09-2.16-6.19-5.75-8.53-7.11-4.42-1.5,4.55-3.45,8.93-3.45,8.93l-1.98-9.72s1.8-18.28,2.26-23.99c.49-5.7-5.69-5.9-6.4-2.07-.7,3.84-4.1,21.73-4.1,21.73,0,0,1.18-20.65,1.57-25.86.41-5.2-6.5-4.48-6.79-1.3-.3,3.17-2.37,25-2.37,25,0,0-.27-17.64-.3-22.45-.02-3.93-5.61-3.56-5.71.23-.09,3.81-3.63,24.42-3.63,24.42,0,0,2.53-16.45,2.17-19.67-.24-2.1-2.73-1.06-3.68.63-3.12,5.62-6.48,16.67-2.79,42.04,3.48,23.9,7.85,43.9,13.38,60.46,8.99-1.18,18.15-1.01,27.24-3.08Z"/>
        <path class="cls-24" d="M1038.46,1173.39c5.07,12.81,65.43,8.39,120.04,8.69,47.64.26,90.42,7.79,94.51-13.9,3.3-17.49-6.71-119.77-6.71-119.77,0,0-18.51-92.16-25.62-97.78-7.13-5.63-54.36-13.16-54.36-13.16h-40.63s-47.67,8.67-58.43,19.62c-10.75,10.95-16.18,93.08-16.18,93.08,0,0-28.59,82.81-12.6,123.22Z"/>
        <path class="cls-51" d="M1166.42,937.47s-2.76,7.26-20.27,7.26-21.21-7.26-21.21-7.26l5.42-25.93,29.71-1.69,6.34,27.62Z"/>
        <path class="cls-51" d="M1167.35,863.1c-.03-3.75-4.39-22.51-23.76-22.51-22.54,0-23.67,18.76-23.68,22.51-.08,15.38-4.93,45.06,13.34,53.93,2.6,1.27,7.42,1.6,10.36,1.62,2.96-.02,8.86-.19,13.59-3.03,16.76-10.12,10.21-37.14,10.15-52.52Z"/>
        <path class="cls-30" d="M1174.74,853.45c-.7-11.58-.14-22.19-18.76-27.03-18.03-4.68-40.49,6.35-40.49,17.59-11.64-.76.91,34.53.91,34.53,0,0,3.79,10.3,3.88,4.72.06-3.48,2.68-7.13,2.68-7.13,0,0-4.02-15.37.64-22.91,7.81-12.64,35.85-5.85,40.95,4.02,5.12,9.86,1.21,16.84,1.21,16.84,0,0,2.6,2.57,2.67,6.05.09,5.58,3.08-4.92,3.08-4.92,0,0,3.87-11.16,3.22-21.75Z"/>
        <path class="cls-51" d="M1163.91,881.24c-4.68.62,2.74,6.12,6.26,5.59,2.51-.37,5.23-3.45,5.21-7.78-.02-4.76-3.37-6.72-5.88-6.35-4.39.66-2.41,8.11-5.59,8.54Z"/>
        <path class="cls-30" d="M1132.84,874.08c0,1.13-.68,2.05-1.49,2.05s-1.5-.93-1.5-2.05.67-2.06,1.5-2.06,1.49.92,1.49,2.06Z"/>
        <path class="cls-30" d="M1155.5,874.08c0,1.13.67,2.05,1.49,2.05s1.5-.93,1.5-2.05-.68-2.06-1.5-2.06-1.49.92-1.49,2.06Z"/>
        <path class="cls-15" d="M1137.24,898.57c3.58,4.22,14.01,3.99,15.78-.97"/>
        <path class="cls-17" d="M1138.61,916.96c6.71,3.63,15.09.3,15.09.3"/>
        <g>
          <path class="cls-17" d="M1145.18,873.67c-.43,3.79-.09,13.05-.09,13.05"/>
          <path class="cls-14" d="M1141.77,888.41s3.73-2.68,6.71-.29"/>
        </g>
        <path class="cls-13" d="M1153.7,864.03c2.59-1.41,6.33-1.5,8.49,1"/>
        <path class="cls-13" d="M1135.04,864.03c-2.59-1.41-6.33-1.5-8.5,1"/>
        <path class="cls-51" d="M1122.49,881.04c4.68.66-2.7,6.1-6.22,5.55-2.51-.4-5.27-3.51-5.29-7.84-.02-4.76,3.31-6.68,5.82-6.29,4.39.7,2.49,8.12,5.69,8.58Z"/>
        <g>
          <path class="cls-23" d="M1146.11,916.96c23.31,0,23.37-28.77,22.45-30.21-.94-1.44-4.38,4.6-8.43,4.25-4.05-.35-6.79-5.52-15.19-5.52-11.11,0-11.24,6.56-16.58,6.04-5.53-.51-7.24-5.81-8.49-4.81-1.23,1.01-2.83,30.24,26.25,30.24Z"/>
          <path class="cls-52" d="M1157.03,894.38c-.35.4-.93.35-1.34-.1-6.08-6.5-15.25-6.5-21.34,0-.4.44-.99.5-1.33.1h0c-.33-.4-.26-1.15.2-1.64,6.72-7.2,16.87-7.2,23.61,0,.45.49.54,1.24.2,1.64h0Z"/>
          <path class="cls-31" d="M1158.48,902.11c-8.94,2.22-18.14,2.22-27.07,0,.21-1.27.43-2.54.64-3.8,8.51,2.13,17.28,2.13,25.78,0,.22,1.26.44,2.53.66,3.8Z"/>
          <path class="cls-31" d="M1155.98,908.55c-7.28,1.84-14.79,1.84-22.07,0,.21-1.27.43-2.53.65-3.79,6.85,1.72,13.92,1.72,20.78,0,.22,1.27.44,2.53.65,3.79Z"/>
        </g>
        <polygon class="cls-33" points="1182 940.2 1155.5 960.69 1148.56 944.68 1164.09 927.29 1182 940.2"/>
        <polygon class="cls-33" points="1110.55 940.5 1140.15 960.69 1148.56 944.68 1126.53 927.29 1110.55 940.5"/>
        <path class="cls-24" d="M907.25,1015.71c-2.39,8.52,29.09,128.01,96.51,134.24,69.1,6.38,71.82-52.21,80.61-74.25,6.07-15.23,1.51-128.12,1.51-128.12,0,0-26.57,3.32-47.42,36.77-11.23,18.02-27.52,88.54-27.52,88.54,0,0-45.46-79.81-51.71-83.26-6.25-3.45-49.59,17.56-51.99,26.08Z"/>
        <path class="cls-1" d="M992.55,1286.44c-12.57,7.4-5.54,30.17.64,32.27,12.19,4.16,56.17-14.57,56.17-14.57l-5.11-22.41s-45.35.97-51.7,4.7Z"/>
        <path class="cls-7" d="M1039.22,1142.29c0-23.13,33.76-125.32,35.1-149.15"/>
        <g>
          <path class="cls-3" d="M1258.18,1155.94c0,5.48-3.33,9.93-7.42,9.93h-194.11c-4.1,0-7.43-4.45-7.43-9.93v-124.15c0-5.49,3.33-9.94,7.43-9.94h194.11c4.1,0,7.42,4.45,7.42,9.94v124.15Z"/>
          <path class="cls-50" d="M1273.44,1186.67c0,3.38-3.81,6.11-8.51,6.11h-222.46c-4.71,0-8.51-2.73-8.51-6.11v-14.68c0-3.37,3.81-6.11,8.51-6.11h222.46c4.7,0,8.51,2.74,8.51,6.11v14.68Z"/>
          <path class="cls-50" d="M1168.52,1093.85c0,8.19-6.64,14.84-14.82,14.84s-14.83-6.65-14.83-14.84,6.64-14.82,14.83-14.82,14.82,6.64,14.82,14.82Z"/>
        </g>
        <path class="cls-29" d="M1345.04,1280.06c-90.09,33.06-290.43,31.32-292.03,31.07-10.17-4.01-14.01-37.17-8.63-43.55,2.56-.75,165.9-99.1,269.79-83.89,62.78,9.19,71.67,81.4,30.87,96.37Z"/>
        <path class="cls-1" d="M1319.31,1294.2c12.26,7.9,4.3,30.37-1.97,32.21-12.35,3.64-55.51-16.89-55.51-16.89l6.03-22.18s45.27,2.85,51.45,6.85Z"/>
        <path class="cls-4" d="M967.39,1273.2c88.65,36.77,288.9,43.32,290.49,43.15,10.32-3.58,15.54-36.56,10.42-43.16-2.51-.85-161.65-105.9-266.08-94.99-63.11,6.59-74.99,78.36-34.83,95Z"/>
      </g>
      <g>
        <path class="cls-51" d="M1736.28,705.98c8.51-1.94,15.73-6.48,23.37-10.07-7.13-7.67-13.83-19-18.28-35.72-3.39-12.73-2-21-3.43-25.08-2.16-6.19-5.75-8.53-7.11-4.42-1.49,4.55-3.43,8.93-3.43,8.93l-1.98-9.73s1.79-18.27,2.26-23.99c.47-5.71-5.71-5.89-6.4-2.06-.7,3.84-4.1,21.74-4.1,21.74,0,0,1.17-20.65,1.57-25.86.39-5.2-6.5-4.48-6.8-1.3-.29,3.17-2.37,25-2.37,25,0,0-.26-17.64-.3-22.45-.02-3.93-5.62-3.56-5.71.23-.09,3.8-3.62,24.42-3.62,24.42,0,0,2.53-16.45,2.16-19.67-.24-2.1-2.71-1.06-3.66.64-3.13,5.61-6.48,16.67-2.81,42.04,3.47,23.91,7.84,43.89,13.37,60.46,8.99-1.17,18.16-1.01,27.26-3.08Z"/>
        <path class="cls-44" d="M1863.23,1374.46c-9.2,4.59-34.84,19.98-41.47,20.91-6.62.93-15.22,1.77-19.3,0-2.28-.99-3.13-10.08,5.19-13.09l9.86-4.28,22.16-19.65,23.44,1.76s6.86,10.98.13,14.35Z"/>
        <path class="cls-41" d="M1991.7,912.91l-151.08-3.07c-23.22,98.15-12.79,443.09-11.92,445.87,5.59,9.67,39.71,8.52,45.34,2.11.56-4.03,50.02-227.22,59.22-358.78l11.68-.02s47.34-23.85,46.76-86.11Z"/>
        <path class="cls-44" d="M2121.1,1398.07c10.02,2.27,24.73-3.58,28.63-9.01,9.61-13.42-26.14-59.71-26.14-59.71l-22.34,7.3s12.51,59.75,19.86,61.41Z"/>
        <path class="cls-41" d="M1866.45,933.81l148.91-39.72c45.95,89.79,115.15,427.96,114.99,430.87-3.13,10.73-36.54,17.76-43.55,12.87-1.49-3.79-158.51-342.69-158.51-342.69,0,0-47.54-.74-61.84-61.33Z"/>
        <path class="cls-53" d="M1840.62,909.84c18.82,17.64,172.48,26.11,183.82,4.39,8.25-15.77,9.02-197.21,9.02-197.21,0,0-18.52-92.15-25.63-97.78-7.12-5.63-54.35-13.15-54.35-13.15h-40.64s-47.67,8.66-58.43,19.61c-10.75,10.95-16.17,93.08-16.17,93.08,0,0-18.28,171.67,2.39,191.06Z"/>
        <path class="cls-16" d="M1893.99,996.04c21.97,7.72,39.28,3,39.28,3"/>
        <path class="cls-16" d="M1976.77,941.28c9.94,28.72,39.9,37.82,52.21,36.7"/>
        <path class="cls-51" d="M1953.58,606.1s-3.95,13.42-21.47,13.42-20-13.42-20-13.42l5.41-25.94s34.66-25.72,33.17-14.24c-1.49,11.48,2.89,40.17,2.89,40.17Z"/>
        <path class="cls-53" d="M1694.41,684.33c-2.39,8.52,29.1,128.01,96.52,134.23,69.11,6.38,71.81-52.21,80.61-74.25,6.06-15.22-1.69-126.21-1.69-126.21,0,0-23.38,1.42-44.22,34.87-11.24,18.02-27.53,88.53-27.53,88.53,0,0-45.46-79.81-51.71-83.26-6.25-3.44-49.58,17.56-51.98,26.08Z"/>
        <path class="cls-8" d="M1832.37,808.87c0-34.03,7.17-84.54,7.17-84.54,0,0,6.93-53.23,19.59-87.34"/>
        <g>
          <path class="cls-51" d="M1904.18,588.15c5.48,3.85,13.08,2.86,13.08,2.86,0,0,30.47-1.71,34.33-27.03,1.43-9.35,4.45-15.39,3.41-30.14-1.35-18.57-33.8-30.18-33.8-30.18l-21.83,8.55s-3.74,10.48-3.44,20.05c.45,14.68-5.73,46.07,8.25,55.88Z"/>
          <path class="cls-30" d="M1950.49,501.05c-20.8-15.58-70.12-15.19-57.55,12.73-10.95,13.53,3,19.75,3,19.75,0,0,.03-8.07.9-12.32,14.85,15.03,31.35-4.41,41.85,1.26,10.51,5.67,1.44,24.33,7.75,34.6,2.79,4.53,6.69,7.09,8.27,2.45,1.59-4.63,16.56-42.89-4.23-58.47Z"/>
          <path class="cls-51" d="M1946.44,557.07c-5.01-.86,1.36,6.33,5.14,6.92,2.71.42,6.31-1.53,7.34-5.41,1.15-4.28-1.86-7.05-4.56-7.48-4.72-.74-4.48,6.56-7.93,5.97Z"/>
          <path class="cls-30" d="M1925.82,545.2c0,1.74.64,3.16,1.44,3.16s1.42-1.41,1.42-3.16-.65-3.17-1.42-3.17-1.44,1.42-1.44,3.17Z"/>
          <path class="cls-30" d="M1904.18,545.2c0,1.74-.64,3.16-1.44,3.16s-1.43-1.41-1.43-3.16.65-3.17,1.43-3.17,1.44,1.42,1.44,3.17Z"/>
          <path class="cls-17" d="M1914.04,544.73c.85,9.24-5.15,9.69-5.22,12.48-.08,2.77,3.96,4.32,3.96,4.32"/>
          <path class="cls-11" d="M1919.66,569.88c-3.97,2.75-14.06.91-14.84-3.07"/>
          <path class="cls-17" d="M1934.97,583.28c-5.21,5.12-15.31,6.02-15.31,6.02"/>
          <path class="cls-10" d="M1923.48,538.07c3.78-1.7,7.63-.81,9.47,1.69"/>
          <path class="cls-10" d="M1906.44,539.05c-3.22-1.98-6.47-1.33-8.6.71"/>
          <g>
            <path class="cls-23" d="M1912.41,590.9c26.89,0,26.2-30.68,25.15-32.07-1.06-1.38-5.33,1.59-9.91,1.26-4.57-.33-7.67-5.19-17.14-5.34-5-.08-9.07,2.05-10.97,3.43-1.05.76-4.2.84-4.77,1.4-1.57,1.59-2.81,31.32,17.64,31.32Z"/>
            <path class="cls-52" d="M1924.16,563.38c-.38.39-1.04.33-1.5-.09-6.87-6.31-17.21-6.31-24.09,0-.45.42-1.12.48-1.5.09h0c-.38-.39-.29-1.12.23-1.59,7.59-6.99,19.04-6.99,26.64,0,.5.47.6,1.2.22,1.59h0Z"/>
            <path class="cls-31" d="M1925.8,570.86c-10.09,2.17-20.48,2.17-30.56,0,.25-1.23.49-2.45.73-3.68,9.6,2.07,19.5,2.07,29.1,0,.23,1.23.49,2.45.73,3.68Z"/>
            <path class="cls-31" d="M1922.98,577.12c-8.21,1.76-16.7,1.76-24.93,0,.24-1.23.49-2.45.74-3.68,7.74,1.66,15.72,1.66,23.46,0,.24,1.23.48,2.45.72,3.68Z"/>
            <path class="cls-23" d="M1948.77,555.9c-.72,1.25-12.46,7.74-12.46,7.74v-5.16l14.18-5.36s-.99,1.53-1.72,2.77Z"/>
            <path class="cls-23" d="M1950.69,565.93c-.72,1.25-15.75,7.9-15.75,7.9l-.03-4.9,15.89-5.14s.6.88-.12,2.14Z"/>
          </g>
        </g>
        <polygon class="cls-3" points="1867.3 891.25 1818.88 794.6 1704.48 794.6 1752.9 891.25 1752.9 909.84 1981.94 909.84 1981.94 891.25 1867.3 891.25"/>
        <path class="cls-51" d="M1962.37,852.22c-27.75,22.86-57.02,33.05-63.8,33.93-6.79.88-6.09,8.29-1.77,8.18,4.8-.13,9.57.22,9.57.22l-7.29,7.98-23.65,7.3s2.08,4.77,12.36,6.32c9.56,1.43,38.78.66,56.95-8.14,18.37-8.89,33.2-19.56,33.2-19.56,0,0-9.61-30.26-15.57-36.24Z"/>
        <path class="cls-53" d="M1944.17,862.67c-.14-7.14,99.57-41.83,54.24-133.96-7.24-14.7-21.64-124.27,10.65-109.19,32.27,15.07,75.75,91.24,74.55,160.64-1.2,69.39-105.96,120.42-113.66,118.05-7.7-2.37-25.65-28.4-25.78-35.53Z"/>
        <path class="cls-8" d="M1944.17,862.67c91.58-50.61,40.14-129.57,37.77-177.43"/>
        <path class="cls-8" d="M1984.31,893.03c14.12-5.2,30.07-14.84,41.47-24.73"/>
      </g>
      <g>
        <g>
          <polygon class="cls-42" points="332.51 1431.46 348.08 1429.28 323.9 1186.38 298.73 1189.89 332.51 1431.46"/>
          <polygon class="cls-42" points="172.84 1430.51 157.24 1428.14 178.62 1185.51 203.83 1189.33 172.84 1430.51"/>
          <path class="cls-36" d="M161.28,1179.12c0,9.61,10.04,17.39,22.45,17.39h140.58c12.39,0,22.45-7.79,22.45-17.39v-21.17c0-9.62-10.05-17.4-22.45-17.4h-140.58c-12.4,0-22.45,7.79-22.45,17.4v21.17Z"/>
          <path class="cls-27" d="M376.41,1403.17c10.03,3.77,38.3,16.98,45.26,17.22,6.95.24,15.99.19,20.03-2.08,2.24-1.28,2.16-10.79-6.82-13.03l-10.67-3.36-25.09-18.01-24.84-1.39s-5.22,17.87,2.13,20.64Z"/>
          <path class="cls-27" d="M472.96,1423.79c10.55-1.9,41.59-5.02,47.69-8.38,6.11-3.35,13.84-8.02,16.15-12.04,1.27-2.24-3.67-10.38-12.52-7.7l-10.89,2.59-30.77-2.62-22.03,11.52s4.66,18.03,12.38,16.64Z"/>
          <path class="cls-56" d="M460.58,1116.37c18.27,77.68-46.56,265.26-47.83,267.92-7.07,8.85-41.1,2.56-45.79-4.72.07-4.12-4.55-136.27-.39-221.73l-60-89.91s135.75-29.24,154.01,48.44Z"/>
          <path class="cls-30" d="M306.67,1051.46c42.32,8.06,94.2,21.45,140.41,72.74,51.71,57.43,49.31,261.09,44.66,270.93-4.65,9.83-28,23.35-36.77,18.82-8.78-4.53-37.96-225.44-82.87-240.29-59.04-19.54-220.52,20.73-220.52-98.97.01-41.95,155.1-23.23,155.1-23.23Z"/>
          <path class="cls-32" d="M146.9,1067.93c19.27,37.37,161.27,5.65,175.39-6.18,14.09-11.85,7.56-97.52,4.4-157.69-3.28-62.53-40.67-103.97-40.67-103.97l-43.18-8.26s-17.86-3.44-38.73,16.64c-33.94,32.64-39.06,134-39.06,134,0,0-33.93,94.85-18.14,125.46Z"/>
          <path class="cls-51" d="M301.06,780.09c-6.11,2.76-13.39.36-13.39.36l-1.66,19.64s3.31,11.04-1.18,12.05c-4.49,1.01-42-20.31-42-20.31,10.94-29.7,16.39-53.36,16.39-53.36,0,0-1.71-6.94,2.08-21.23,4.81-18,38.86-23.32,38.86-23.32l19.83,12.48s1.72,11-.37,20.35c-3.19,14.33-2.99,46.32-18.57,53.35Z"/>
          <path class="cls-30" d="M259.37,684.72c19.31-16.65,55.89-3.08,65.86,3.7,9.97,6.78,10.15,23.3-4.57,30.31-14.72,7.01-26.67-19.14-45.6-7.98-13.1,7.72,0,22.82-12.93,32.02-1.05.74-4.16.74-4.16.74l-3.77,13.73s-27.34-44.48,5.17-72.51Z"/>
          <path class="cls-51" d="M265.36,741.64c5.09.09-2.52,5.96-6.34,5.83-2.75-.09-5.91-2.68-6.2-6.7-.32-4.42,3.14-6.57,5.88-6.49,4.77.15,3.18,7.27,6.67,7.35Z"/>
          <path class="cls-30" d="M287.84,733.84c-.32,1.71-1.23,2.98-2,2.84-.76-.15-1.13-1.65-.8-3.37.33-1.72,1.22-2.99,1.99-2.84.78.15,1.13,1.66.81,3.37Z"/>
          <path class="cls-30" d="M309.11,737.89c-.32,1.71.03,3.22.82,3.37.76.14,1.66-1.12,1.98-2.83.32-1.73-.04-3.24-.81-3.38-.79-.15-1.68,1.12-2,2.84Z"/>
          <path class="cls-17" d="M299.51,735.58c-2.57,8.92,3.24,10.48,2.78,13.23-.43,2.73-4.7,3.51-4.7,3.51"/>
          <path class="cls-11" d="M289.26,759.24c3.4,3.45,13.65,3.53,15.17-.24"/>
          <path class="cls-17" d="M271.72,769.54c4.16,5.99,13.91,8.78,13.91,8.78"/>
          <path class="cls-10" d="M291.48,727.27c-3.4-2.37-7.35-2.22-9.62-.11"/>
          <path class="cls-10" d="M308.03,731.42c3.54-1.33,6.6-.09,8.31,2.31"/>
          <g>
            <path class="cls-23" d="M292.46,781.24c-26.41-5.03-19.99-35.04-18.69-36.21,1.29-1.17,4.92,2.56,9.48,3.09,4.55.53,8.49-3.66,17.83-2.05,4.94.85,8.53,3.71,10.15,5.42.89.95,3.97,1.61,4.41,2.27,1.26,1.86-3.11,31.3-23.18,27.47Z"/>
            <path class="cls-52" d="M286.07,752.01c.3.45.96.53,1.49.2,7.93-4.92,18.1-2.98,23.66,4.5.37.5,1.01.68,1.46.37h0c.45-.31.49-1.04.08-1.61-6.16-8.29-17.39-10.43-26.17-4.99-.6.36-.82,1.07-.52,1.52h0Z"/>
            <path class="cls-31" d="M283.07,759.05c9.48,4.02,19.71,5.96,30.01,5.72-.01-1.25-.02-2.51-.03-3.76-9.81.24-19.54-1.62-28.58-5.45-.46,1.17-.93,2.33-1.4,3.49Z"/>
            <path class="cls-31" d="M284.66,765.73c7.74,3.27,16.07,4.86,24.48,4.66,0-1.25-.01-2.5-.03-3.76-7.91.18-15.75-1.31-23.05-4.39-.46,1.16-.94,2.32-1.4,3.48Z"/>
            <path class="cls-23" d="M263.29,740.06c.48,1.36,10.8,9.94,10.8,9.94l.97-5.06-12.93-7.91s.68,1.68,1.16,3.04Z"/>
            <path class="cls-23" d="M259.53,749.55c.47,1.36,13.99,10.71,13.99,10.71l.96-4.8-14.66-8.03s-.74.76-.28,2.13Z"/>
          </g>
          <path class="cls-51" d="M288.6,933.35s27.74,49.55,107.96,71.34c3.01.82,64.07-1.02,64.02,23.44-.02,9.75-94.01,0-94.01,0,0,0-68.49,14.72-107.19-27.56-18.3-19.99-18.07-31.29-18.07-31.29l47.3-35.93Z"/>
          <path class="cls-32" d="M303.61,933.35c1.97-14.62-10.51-123.21-59.19-132.39-48.67-9.2-56.17,43.1-50.68,66.63,8.85,38.02,41.48,124.27,54.37,126.73,10.08,1.92,53.55-46.35,55.5-60.97Z"/>
          <path class="cls-18" d="M303.61,933.35c1.59-31.2-16.58-90.69-30.1-110.58"/>
          <path class="cls-18" d="M247.23,994.77c-49.5-64.11-53.11-144.87-54.31-153.25"/>
        </g>
        <path class="cls-42" d="M346.75,1067.93c0,11.31,3.54,20.48,7.93,20.48h254.6c4.39,0,7.94-9.17,7.94-20.48h0c0-11.32-3.56-20.49-7.94-20.49h-254.6c-4.39,0-7.93,9.17-7.93,20.49h0Z"/>
        <polygon class="cls-57" points="494 1028.13 544.43 927.46 571.42 927.46 520.99 1028.13 520.99 1047.49 366.57 1047.49 366.57 1028.13 494 1028.13"/>
        <polygon class="cls-42" points="580.31 1435.06 595.97 1432.01 526.74 1076.08 511.07 1079.13 580.31 1435.06"/>
        <rect class="cls-42" x="236.82" y="1247.59" width="362.61" height="15.96" transform="translate(-894.18 1426.31) rotate(-78.99)"/>
      </g>
    </g>
  </g>
</svg>