<?xml version="1.0" encoding="UTF-8"?>
<svg id="Object" xmlns="http://www.w3.org/2000/svg" viewBox="0 0 882 1110.73">
  <defs>
    <style>
      .cls-1 {
        fill: #fff;
      }

      .cls-2 {
        fill: #6b509c;
      }
    </style>
  </defs>
  <path class="cls-2" d="M25.2,0c-6.63,0-13.13,2.69-17.82,7.39C2.69,12.08,0,18.57,0,25.21v753.51c0,6.64,2.69,13.13,7.39,17.82,4.68,4.7,11.19,7.39,17.82,7.39h259.17v-463.52c0-4.43,1.81-8.76,4.92-11.88,3.12-3.14,7.46-4.92,11.89-4.92h313.24V25.21c0-6.64-2.68-13.13-7.37-17.82-4.7-4.7-11.17-7.39-17.84-7.39H25.2ZM274.4,638.82H97.07v-50.39h177.33v50.39ZM274.4,524.76H94v-50.39h180.4v50.39ZM274.4,410.7H97.07v-50.41h177.33v50.41ZM517.01,296.63H97.07v-50.41h419.93v50.41ZM517.01,182.57H139.73v-50.41h377.28v50.41Z"/>
  <rect class="cls-1" x="139.73" y="132.16" width="377.28" height="50.41"/>
  <rect class="cls-1" x="97.07" y="246.22" width="419.93" height="50.41"/>
  <rect class="cls-1" x="97.07" y="360.29" width="177.33" height="50.41"/>
  <rect class="cls-1" x="94" y="474.37" width="180.4" height="50.39"/>
  <rect class="cls-1" x="97.07" y="588.43" width="177.33" height="50.39"/>
  <path class="cls-1" d="M318,1077.12h530.39V357.21H318v719.9ZM407.71,447.36h395.7v50.4h-395.7v-50.4ZM363,561.43h440.41v50.4h-440.41v-50.4ZM363,675.51h440.41v50.39h-440.41v-50.39ZM363,789.57h440.41v50.41h-440.41v-50.41ZM363,903.64h330.95v50.39h-330.95v-50.39Z"/>
  <path class="cls-1" d="M614.43,323.6h-313.24c-4.43,0-8.77,1.79-11.89,4.92-3.12,3.13-4.92,7.45-4.92,11.88v753.52c0,4.42,1.81,8.76,4.92,11.88,3.12,3.14,7.46,4.92,11.89,4.92h564c4.43,0,8.76-1.79,11.91-4.92,3.13-3.13,4.9-7.46,4.9-11.88V340.4c0-4.42-1.77-8.76-4.9-11.88-3.14-3.14-7.47-4.92-11.91-4.92h-250.76ZM848.39,1077.12H318V357.21h530.39v719.9Z"/>
  <rect class="cls-2" x="407.71" y="447.36" width="395.7" height="50.4"/>
  <rect class="cls-2" x="363" y="561.43" width="440.41" height="50.4"/>
  <rect class="cls-2" x="363" y="675.51" width="440.41" height="50.39"/>
  <rect class="cls-2" x="363" y="789.57" width="440.41" height="50.41"/>
  <rect class="cls-2" x="363" y="903.64" width="330.95" height="50.39"/>
</svg>