<?xml version="1.0" encoding="UTF-8"?>
<svg id="Layer_1" xmlns="http://www.w3.org/2000/svg" version="1.1" xmlns:xlink="http://www.w3.org/1999/xlink" viewBox="0 0 491.2 450.9">
  <!-- Generator: Adobe Illustrator 29.0.0, SVG Export Plug-In . SVG Version: 2.1.0 Build 186)  -->
  <defs>
    <style>
      .st0 {
        fill: url(#linear-gradient2);
      }

      .st1 {
        fill: #37474f;
      }

      .st2 {
        fill: #ba68c8;
      }

      .st3 {
        fill: #b16668;
      }

      .st4 {
        fill: #263238;
      }

      .st5 {
        opacity: .3;
      }

      .st5, .st6, .st7, .st8, .st9, .st10, .st11 {
        isolation: isolate;
      }

      .st12, .st6, .st11 {
        fill: #fff;
      }

      .st13 {
        fill: url(#linear-gradient1);
      }

      .st14 {
        fill: #f0f0f0;
      }

      .st6 {
        opacity: .4;
      }

      .st15 {
        fill: #ffa8a7;
      }

      .st16 {
        fill: #f28f8f;
      }

      .st17 {
        fill: #e0e0e0;
      }

      .st7 {
        opacity: .2;
      }

      .st18 {
        fill: #2b2b2b;
      }

      .st8 {
        opacity: .4;
      }

      .st9 {
        opacity: .2;
      }

      .st10, .st11 {
        opacity: .2;
      }

      .st19 {
        fill: url(#linear-gradient3);
      }

      .st20 {
        fill: #455a64;
      }

      .st21 {
        fill: #ebebeb;
      }

      .st22 {
        fill: #f5f5f5;
      }

      .st23 {
        fill: #fafafa;
      }

      .st24 {
        fill: url(#linear-gradient);
      }

      .st25 {
        fill: #e6e6e6;
      }
    </style>
    <linearGradient id="linear-gradient" x1="159" y1="97.1" x2="271.6" y2="97.1" gradientTransform="translate(0 452) scale(1 -1)" gradientUnits="userSpaceOnUse">
      <stop offset="0" stop-color="#db3fa0"/>
      <stop offset="1" stop-color="#560083"/>
    </linearGradient>
    <linearGradient id="linear-gradient1" x1="233" y1="150.9" x2="360.2" y2="150.9" gradientTransform="translate(0 452) scale(1 -1)" gradientUnits="userSpaceOnUse">
      <stop offset="0" stop-color="#db3fa0"/>
      <stop offset="1" stop-color="#560083"/>
    </linearGradient>
    <linearGradient id="linear-gradient2" x1="345.6" y1="204.9" x2="458.3" y2="204.9" gradientTransform="translate(0 452) scale(1 -1)" gradientUnits="userSpaceOnUse">
      <stop offset="0" stop-color="#db3fa0"/>
      <stop offset="1" stop-color="#560083"/>
    </linearGradient>
    <linearGradient id="linear-gradient3" x1="401.5" y1="212.4" x2="477.1" y2="212.4" gradientTransform="translate(0 -162.2)" gradientUnits="userSpaceOnUse">
      <stop offset="0" stop-color="#db3fa0"/>
      <stop offset="1" stop-color="#560083"/>
    </linearGradient>
  </defs>
  <g id="Floor">
    <path id="Floor-2" class="st22" d="M71.9,208.8c-95.9,55.4-95.9,145.1,0,200.5,95.9,55.4,251.4,55.4,347.3,0,95.9-55.4,95.9-145.1,0-200.5s-251.4-55.4-347.3,0Z"/>
  </g>
  <g id="Plants">
    <g id="Plants-2">
      <g>
        <path class="st12" d="M443.7,208.8c-.5.5-1.3,1.2-2.3,2-6.4,5.4-21.3,18.1-23.2,35.7l-2-.5c-.2-19.3,13.5-39.1,22.8-43.1.2,0,.3-.4.2-.6-.1-.2-.4-.3-.6-.2-9.5,4-23.5,23.4-23.4,43.7l-1.4-.4c-.5-1.8-3.6-14,4.9-30.1,1.5-2.8,3.1-5.4,4.9-7.7h0c5.9-7.8,12.9-12.2,17.8-10.6,2.5.8,4.1,2.4,4.6,4.6.6,2.4-.4,5.1-2.5,7.2h0Z"/>
        <path class="st12" d="M432.8,190.7c-3.9,5.5-7.8,11.2-9.7,16.3-1.8,2.3-3.5,5-5,7.9-2.7,5.2-4.3,10-5.1,14.2-.8-29.4,15.3-52.4,20.2-56.5.2-.1.2-.4,0-.6-.1-.2-.4-.2-.6,0-5.2,4.4-22.9,29.7-20.3,61.4,0,0,0,0,0,0-.6,5.9.2,10.1.6,11.7l-2.4-.7c-.6-2.2-5.7-20.8-1.5-45.5,2.2-13.2,9.9-26,18.2-30.5,3.9-2.1,7.6-2.4,11.2-.8,2,.9,3.1,2,3.6,3.6,1.3,4.6-3.8,11.9-9.1,19.6h0Z"/>
      </g>
      <g>
        <path class="st2" d="M447.1,201.4c-.6-2.5-2.5-4.4-5.2-5.3-4.6-1.5-11.1,2-16.8,8.6-.6.8-1.3,1.5-1.9,2.4-1.8,2.3-3.5,5-5,7.9-2.7,5.2-4.3,10-5.1,14.2-.3,1.5-.5,3-.6,4.3-.6,5.9.2,10.1.6,11.7.1.5.2.8.2.8,0,.1.1.2.2.2h0s0,0,0,0l2.1.5,2.9.8c0,0,.1,0,.2,0,0,0,.1,0,.2,0,.1,0,.2-.2.2-.3,1.6-17.5,16.5-30.2,22.9-35.7,1-.9,1.8-1.6,2.4-2.1,2.3-2.3,3.4-5.3,2.7-8h0ZM443.7,208.8c-.5.5-1.3,1.2-2.3,2-6.4,5.4-21.3,18.1-23.2,35.7l-2-.5-.9-.2-1.4-.4c-.5-1.8-3.6-14,4.9-30.1,1.5-2.8,3.1-5.4,4.9-7.7h0c5.9-7.8,12.9-12.2,17.8-10.6,2.5.8,4.1,2.4,4.6,4.6.6,2.4-.4,5.1-2.5,7.2h0Z"/>
        <path class="st2" d="M439,202.9c-9.4,4-23,23.8-22.8,43.1v.3c0,.2-.1.4-.4.4h0c0,0-.1,0-.2,0-.1,0-.2-.2-.2-.4s0-.4,0-.6c-.1-20.3,13.9-39.7,23.4-43.7.2,0,.5,0,.6.2,0,.2,0,.5-.2.6h0Z"/>
      </g>
      <g>
        <path class="st2" d="M433.5,191.2c-3.1,4.5-6.4,9.2-8.5,13.5-.5.9-.8,1.9-1.2,2.7,0,0-.4.3-.6.3-.2,0-.3-.3-.2-.6,0,0,0,0,0,0,1.9-5.1,5.8-10.8,9.7-16.3,5.4-7.7,10.4-14.9,9.1-19.6-.5-1.6-1.6-2.7-3.6-3.6-3.6-1.6-7.4-1.3-11.2.8-8.3,4.5-16,17.4-18.2,30.5-4.2,24.7.9,43.3,1.5,45.5l2.4.7.8.2c.2,0,.4.3.3.6,0,.2-.2.3-.4.3,0,0-.1,0-.2,0h0s-3.3-1-3.3-1c-.1,0-.2-.1-.3-.3,0-.2-6.1-19.8-1.6-46.2,2.3-13.4,10.1-26.5,18.6-31.1,4.1-2.2,8.1-2.5,12-.8,2.2.9,3.5,2.3,4,4.1,1.4,5-3.8,12.4-9.2,20.3h0Z"/>
        <path class="st2" d="M433.2,172.6c-4.9,4.1-21,27.1-20.2,56.5,0,1.4.1,2.8.2,4.2,0,.2-.1.4-.4.5,0,0,0,0,0,0-.2,0-.4-.1-.5-.4,0,0,0,0,0,0-2.6-31.7,15.1-57.1,20.3-61.4.2-.1.5-.1.6,0,.2.2.1.5,0,.6h0Z"/>
      </g>
    </g>
  </g>
  <g id="Clouds">
    <g id="Clouds-2">
      <path class="st21" d="M272.9,64.6l-9.3,5.4c0-.4,0-.8,0-1.2v-2.7c0-4.8-3.4-6.8-7.5-4.3-1.7,1-3.2,2.5-4.5,4.3-.7-6-5.4-8.3-11.2-5-6.2,3.6-11.3,12.3-11.3,19.5v4c0,1.9.3,3.4,1,4.7l-7.8,4.5c-2.3,1.3-4.2,4.6-4.2,7.2s1.9,3.8,4.2,2.4l50.5-29.2c2.3-1.3,4.2-4.6,4.2-7.2s-1.9-3.8-4.2-2.4h0Z"/>
      <path class="st21" d="M330.1,70.4l-7,4.1c0-.3,0-.6,0-.9v-2c0-3.6-2.5-5.1-5.7-3.3-1.3.7-2.4,1.9-3.4,3.3-.5-4.6-4.1-6.3-8.4-3.8-4.7,2.7-8.5,9.3-8.5,14.8v3.1c0,1.4.3,2.6.7,3.5l-5.9,3.4c-1.7,1-3.2,3.5-3.2,5.5s1.4,2.8,3.2,1.8l38.1-22c1.7-1,3.2-3.4,3.2-5.5s-1.4-2.8-3.2-1.8h0Z"/>
    </g>
  </g>
  <g id="Shadows">
    <g id="Shadow">
      <path class="st17" d="M273.6,377.7l-7.5-4.3,5.4-3.1c2.8-1.6,3.2-4,3.2-5.2s-.4-3.6-3.3-5.2l-13.5-7.8c-1.5-.9-3.3-1.3-5.3-1.3s-3.8.4-5.3,1.3l-9.1,5.3-47.2-27.3c-1.5-.9-3.3-1.3-5.3-1.3s-3.8.4-5.3,1.3l-19.3,11.1c-1.7,1-2.8,1.9-3.5,3-.8,1.3-1.1,3-.7,5l10,50c.6,2.5,2.5,4.7,5.6,6.5l13.6,7.8c1.5.9,3.3,1.3,5.3,1.3h0c2,0,3.8-.4,5.3-1.3l38.4-22.2,11.2,6.5c1.5.9,3.3,1.3,5.3,1.3s3.8-.4,5.3-1.3l16.7-9.7c2.8-1.6,3.3-4,3.3-5.2,0-1.2-.4-3.6-3.3-5.2h0ZM199.2,379.8l-2.2-11.3,10.9,6.3-8.6,5h0Z"/>
      <path id="Shadow-2" class="st17" d="M58.9,373.8c7.7,2.8,15.1,6.6,21.9,11.2,7.7,5.2,14.7,11.4,22.8,15.7,10.6,5.6,22.8,7.6,34.8,7,6.8-.3,14.1-1.8,18.5-7.1,1.1-1.4,2-3,2-4.8,0-2.6-1.7-4.9-3.6-6.6-9.8-9.6-23.5-13.5-36.8-16.6-13.2-3.1-21.2-6.9-34.2-13.9-5.6-3-11-6.2-16.6-9,0,0,0,0-.1,0-2.8-1.4-5.5-3-8.5-4.1-3.8-1.4-7-2.4-11.2-2.1-4.2.3-9,.2-11.9,3.7-2.6,3-2.9,7-1.3,10.5,4.1,9.5,15.4,12.9,24.2,16.1h0Z"/>
      <path class="st17" d="M348.8,299.9c-3.4-2.1-7.1-4.4-11.1-6.7-4-2.3-8-4.5-11.9-6.6-5.1-2.6-10.6-4.8-16.6-6.4-6-1.6-12.3-2.5-18.8-2.6h-.9c-6.2,0-12.6.8-19,2.4-6.8,1.6-13.6,4.4-20.3,8.3-6.9,4-11.8,8-14.8,12.2-3.2,4.4-4.8,8.9-4.6,13.3.2,4.4,1.9,8.6,5.1,12.5,2.9,3.6,6.8,6.9,11.5,9.9,3.5,2.2,7.3,4.5,11.4,6.9s8,4.5,11.6,6.4c5.1,2.6,10.6,4.8,16.6,6.4,6,1.6,12.3,2.5,18.8,2.6h.9c6.2,0,12.6-.8,19-2.4,6.8-1.6,13.6-4.4,20.3-8.3,6.9-4,11.8-8,14.8-12.2,3.2-4.4,4.8-8.9,4.6-13.3-.2-4.4-1.9-8.6-5.1-12.5-3-3.6-6.8-6.9-11.5-9.9h0ZM325.8,326.4c-.4.5-1.3,1.6-4,3.2-2.2,1.3-4.4,2.2-6.5,2.6-1.7.4-3.3.5-5,.5s-.9,0-1.3,0c-2-.1-4.1-.5-6-1.2-2.1-.7-4.1-1.6-6.2-2.7-7.5-3.9-14.6-8-21.2-12.2-1.8-1.1-3.2-2.2-4.3-3.3-.8-.8-1.3-1.6-1.4-2.2,0-.1-.1-.5.4-1.3.3-.5,1.3-1.6,4-3.2,2.2-1.3,4.4-2.2,6.5-2.6,1.6-.4,3.2-.5,4.7-.5s1,0,1.4,0c2,.1,4,.6,6,1.2,2.1.7,4.3,1.6,6.3,2.6,7.3,3.8,14.4,7.9,21.2,12.3,1.8,1.1,3.3,2.3,4.4,3.4.8.8,1.2,1.5,1.3,2.1,0,.1.1.6-.5,1.5h0Z"/>
      <path class="st17" d="M460.2,269.9l-7.5-4.3,5.4-3.1c2.8-1.6,3.2-4,3.2-5.2s-.4-3.6-3.3-5.2l-13.5-7.8c-1.5-.9-3.3-1.3-5.3-1.3s-3.8.4-5.3,1.3l-9.1,5.3-47.2-27.3c-1.5-.9-3.3-1.3-5.3-1.3s-3.8.4-5.3,1.3l-19.3,11.1c-1.7,1-2.8,1.9-3.5,3-.8,1.3-1.1,3-.7,5l10,50c.6,2.5,2.5,4.7,5.6,6.5l13.5,7.8c1.5.9,3.3,1.3,5.3,1.3h0c2,0,3.8-.4,5.3-1.3l38.4-22.2,11.2,6.5c1.5.9,3.3,1.3,5.3,1.3s3.8-.4,5.3-1.3l16.7-9.7c2.8-1.6,3.3-4,3.3-5.2,0-1.2-.4-3.5-3.3-5.2h0ZM385.9,272l-2.2-11.3,10.9,6.3-8.6,5Z"/>
    </g>
  </g>
  <g id="_404">
    <g id="_404-2">
      <g id="_404-3">
        <g>
          <g>
            <path class="st2" d="M270.2,368l-16.7,9.7c-.9.5-2.1.8-3.4.8s-2.5-.3-3.4-.8l-13-7.5-40.3,23.2c-.9.5-2.1.8-3.4.8s-2.5-.3-3.4-.8l-13.5-7.8c-2.2-1.3-3.5-2.6-3.8-4.1l-10-49.9c0-.3,0-.6,0-.9,0,1,0,13.4,0,14,0,.2,0,.5,0,.8l10,49.9c.3,1.5,1.6,2.9,3.8,4.1l13.5,7.8c.9.5,2.1.8,3.4.8s2.5-.3,3.4-.8l40.3-23.2,13,7.5c.9.5,2.1.8,3.4.8s2.5-.3,3.4-.8l16.7-9.7c.9-.5,1.4-1.2,1.4-2v-13.9c0,.8-.5,1.5-1.4,2h0Z"/>
            <path class="st2" d="M269.6,362v-13.9c0,.8-.5,1.5-1.4,2l-11,6.3,11.9,6.9c.3-.4.5-.8.5-1.3Z"/>
            <polygon class="st2" points="193.4 360.1 201.7 364.9 213.8 358 190.2 344.4 193.4 360.1 193.4 360.1"/>
          </g>
          <g>
            <polygon class="st5" points="193.4 360.1 201.7 364.9 213.8 358 190.2 344.4 193.4 360.1 193.4 360.1"/>
            <path class="st10" d="M269.6,362v-13.9c0,.8-.5,1.5-1.4,2l-11,6.3,11.9,6.9c.3-.4.5-.8.5-1.3Z"/>
            <path class="st10" d="M270.2,368l-16.7,9.7c-.9.5-2.1.8-3.4.8v13.9c1.4,0,2.5-.3,3.4-.8l16.7-9.7c.9-.5,1.4-1.2,1.4-2v-13.9c0,.8-.5,1.5-1.4,2h0Z"/>
            <path class="st7" d="M169,381.4l-10-49.9c0-.3,0-.6,0-.9,0,1,0,13.4,0,14,0,.2,0,.5,0,.8l10,49.9c0,.3.2.6.3.8v-13.9c-.1-.3-.2-.6-.3-.8h0Z"/>
            <path class="st5" d="M189.9,394.2c-1.4,0-2.5-.3-3.4-.8l-13.5-7.8c-1.8-1-3-2.1-3.5-3.3v13.9c.6,1.2,1.7,2.3,3.5,3.3l13.5,7.8c.9.5,2.1.8,3.4.8s.2,0,.4,0v-13.9c-.1,0-.2,0-.4,0Z"/>
            <path class="st10" d="M193.3,393.4c-.8.5-1.9.8-3.1.8v13.9c1.2,0,2.2-.3,3.1-.8l40.3-23.2v-13.9l-40.3,23.2Z"/>
            <path class="st5" d="M246.6,377.7l-13-7.5v13.9l13,7.5c.9.5,2.1.8,3.4.8v-13.9c-1.4,0-2.5-.3-3.4-.8h0Z"/>
          </g>
          <path class="st24" d="M253.5,377.7c-.9.5-2.1.8-3.4.8s-2.5-.3-3.4-.8l-13-7.5-40.3,23.2c-.9.5-2.1.8-3.4.8s-2.5-.3-3.4-.8l-13.6-7.8c-2.2-1.3-3.5-2.7-3.8-4.1l-10-49.9c-.2-1,0-1.8.2-2.3.3-.5,1.1-1.1,2.2-1.8l19.3-11.1c.9-.5,2.1-.8,3.4-.8s2.5.3,3.4.8l49.1,28.3,11-6.4c.9-.5,2.1-.8,3.4-.8s2.5.3,3.4.8l13.6,7.8c.9.5,1.4,1.2,1.4,2s-.5,1.5-1.4,2l-11,6.4,13,7.5c.9.5,1.4,1.2,1.4,2s-.5,1.5-1.4,2l-16.7,9.7h0ZM213.8,358l-23.5-13.6,4.9,24.4,18.7-10.8h0Z"/>
        </g>
        <g>
          <g>
            <path class="st2" d="M360.2,306.3c0,3.4-1.4,6.8-3.9,10.2-2.7,3.7-7.3,7.5-13.7,11.1-6.4,3.7-12.8,6.3-19.3,7.9-6.5,1.6-12.8,2.3-19,2.2-6.2,0-12.1-.9-17.8-2.5-5.7-1.6-11-3.6-15.9-6.1-3.7-1.9-7.5-4-11.5-6.3-4-2.3-7.8-4.6-11.2-6.8-4.3-2.8-7.9-5.9-10.6-9.1-2.7-3.3-4.2-6.7-4.3-10.3,0,2.2,0,11.5,0,13.9.1,3.6,1.5,7,4.3,10.3,2.7,3.3,6.2,6.3,10.6,9.1,3.5,2.2,7.2,4.5,11.2,6.8,4,2.3,7.8,4.4,11.5,6.4,4.9,2.5,10.1,4.5,15.9,6.1s11.7,2.4,17.8,2.5c6.2,0,12.5-.7,19-2.2,6.5-1.6,12.9-4.2,19.3-7.9,6.4-3.7,11-7.4,13.7-11.1,2.7-3.7,4-7.4,3.9-11,0-2,0-10,0-13.2h0Z"/>
            <path class="st5" d="M307.8,337.8c-1.1,0-2.3,0-3.4,0-6.2,0-12.1-.9-17.8-2.5-5.7-1.6-11-3.6-15.9-6.1-3.7-1.9-7.5-4-11.5-6.3-4-2.3-7.8-4.6-11.2-6.8-4.3-2.8-7.9-5.9-10.6-9.1-2.7-3.3-4.2-6.7-4.3-10.3,0,2.2,0,11.5,0,13.9.1,3.6,1.5,7,4.3,10.3,2.7,3.3,6.2,6.3,10.6,9.1,3.5,2.2,7.2,4.5,11.2,6.8,4,2.3,7.8,4.4,11.5,6.4,4.9,2.5,10.1,4.5,15.9,6.1s11.7,2.4,17.8,2.5c1.1,0,2.3,0,3.4,0v-13.9h0Z"/>
            <path class="st10" d="M360.2,306.3c0,3.4-1.4,6.8-3.9,10.2-2.7,3.7-7.3,7.5-13.7,11.1-6.4,3.7-12.8,6.3-19.3,7.9-5.3,1.3-10.5,2-15.6,2.2v13.9c5.1-.2,10.3-.9,15.6-2.2,6.5-1.6,12.9-4.2,19.3-7.9,6.4-3.7,11-7.4,13.7-11.1,2.7-3.7,4-7.4,3.9-11,0-2,0-10,0-13.2h0Z"/>
          </g>
          <g>
            <path class="st2" d="M267.2,298.9c.7.7,1.5,1.5,2.5,2.2.4-.3.9-.6,1.3-.8,2.6-1.5,5.1-2.5,7.5-3,2.5-.5,4.9-.7,7.2-.5,2.3.2,4.6.6,6.9,1.4,2.2.8,4.5,1.7,6.8,2.9,7.4,3.9,14.6,8,21.5,12.4.9.6,1.7,1.1,2.5,1.7,1.8-1.2,3.1-2.3,3.9-3.5.9-1.4,1.3-2.8,1-4.2-.2-1.4-1-2.7-2.4-4-1.3-1.3-3-2.6-5-3.9-6.9-4.4-14.1-8.5-21.5-12.4-2.3-1.1-4.6-2.1-6.8-2.9-2.3-.8-4.6-1.2-6.9-1.4-2.3-.2-4.8,0-7.2.5-2.5.5-5,1.6-7.5,3-2.5,1.5-4.3,2.9-5.2,4.4-.9,1.4-1.3,2.8-1,4.2.3,1.4,1.1,2.7,2.4,4h0Z"/>
            <path class="st5" d="M267.2,298.9c.7.7,1.5,1.5,2.5,2.2.4-.3.9-.6,1.3-.8,2.6-1.5,5.1-2.5,7.5-3,2.5-.5,4.9-.7,7.2-.5,2.3.2,4.6.6,6.9,1.4,2.2.8,4.5,1.7,6.8,2.9,7.4,3.9,14.6,8,21.5,12.4.9.6,1.7,1.1,2.5,1.7,1.8-1.2,3.1-2.3,3.9-3.5.9-1.4,1.3-2.8,1-4.2-.2-1.4-1-2.7-2.4-4-1.3-1.3-3-2.6-5-3.9-6.9-4.4-14.1-8.5-21.5-12.4-2.3-1.1-4.6-2.1-6.8-2.9-2.3-.8-4.6-1.2-6.9-1.4-2.3-.2-4.8,0-7.2.5-2.5.5-5,1.6-7.5,3-2.5,1.5-4.3,2.9-5.2,4.4-.9,1.4-1.3,2.8-1,4.2.3,1.4,1.1,2.7,2.4,4h0Z"/>
          </g>
          <path class="st13" d="M250.6,274.5c6.4-3.7,12.8-6.3,19.3-7.9,6.5-1.6,12.8-2.3,19-2.2,6.2,0,12.1.9,17.8,2.5s11,3.6,15.9,6.1c3.8,2,7.8,4.2,11.8,6.5,4,2.3,7.7,4.5,11,6.6,4.3,2.8,7.9,5.9,10.6,9.1,2.7,3.3,4.1,6.7,4.3,10.3.1,3.6-1.2,7.2-3.9,11-2.7,3.7-7.3,7.5-13.7,11.1-6.4,3.7-12.8,6.3-19.3,7.9-6.5,1.6-12.8,2.3-19,2.2-6.2,0-12.1-.9-17.8-2.5s-11-3.6-15.9-6.1c-3.7-1.9-7.5-4-11.5-6.4-4-2.3-7.8-4.6-11.2-6.8-4.3-2.8-7.9-5.9-10.6-9.1-2.7-3.3-4.1-6.7-4.3-10.3s1.2-7.2,3.9-11,7.3-7.5,13.7-11.1h0ZM321,299.4c-6.9-4.4-14.1-8.5-21.5-12.4-2.3-1.1-4.6-2.1-6.8-2.8s-4.6-1.2-6.9-1.4c-2.3-.2-4.8,0-7.2.5-2.5.5-5,1.5-7.5,3-2.5,1.5-4.3,2.9-5.2,4.4-.9,1.4-1.3,2.8-1,4.2.3,1.4,1.1,2.7,2.4,4,1.3,1.3,2.9,2.6,5,3.9,6.6,4.3,13.8,8.5,21.5,12.4,2.2,1.2,4.5,2.1,6.7,2.9,2.2.8,4.6,1.2,7,1.4,2.4.1,4.8,0,7.3-.6s5-1.5,7.5-3c2.6-1.5,4.3-2.9,5.2-4.4.9-1.4,1.3-2.8,1-4.2s-1-2.7-2.4-4c-1.3-1.3-3-2.6-5-3.9h0Z"/>
        </g>
        <g>
          <g>
            <path class="st2" d="M456.9,260.2l-16.7,9.7c-.9.5-2.1.8-3.5.8s-2.5-.3-3.4-.8l-13-7.5-40.3,23.2c-.9.5-2.1.8-3.5.8s-2.5-.3-3.5-.8l-13.5-7.8c-2.2-1.3-3.5-2.6-3.8-4.1l-10-49.9c0-.3,0-.6,0-.9,0,1,0,13.4,0,14,0,.2,0,.5,0,.8l10,49.9c.3,1.5,1.6,2.9,3.8,4.1l13.5,7.8c1,.5,2.1.8,3.5.8s2.5-.3,3.5-.8l40.3-23.2,13,7.5c.9.5,2.1.8,3.4.8s2.5-.3,3.5-.8l16.7-9.7c.9-.5,1.4-1.2,1.4-2v-13.9c0,.8-.5,1.5-1.4,2Z"/>
            <path class="st2" d="M456.3,254.3v-13.9c0,.8-.5,1.4-1.4,2l-11,6.3,11.9,6.9c.3-.4.5-.8.5-1.3h0Z"/>
            <polygon class="st2" points="380.1 252.3 388.4 257.1 400.4 250.2 376.9 236.6 380 252.3 380.1 252.3"/>
          </g>
          <g>
            <polygon class="st5" points="380.1 252.3 388.4 257.1 400.4 250.2 376.9 236.6 380 252.3 380.1 252.3"/>
            <path class="st10" d="M456.3,254.3v-13.9c0,.8-.5,1.4-1.4,2l-11,6.3,11.9,6.9c.3-.4.5-.8.5-1.3h0Z"/>
            <path class="st10" d="M456.9,260.2l-16.7,9.7c-.9.5-2.1.8-3.5.8v13.9c1.4,0,2.5-.3,3.5-.8l16.7-9.7c.9-.5,1.4-1.2,1.4-2v-13.9c0,.8-.5,1.5-1.4,2Z"/>
            <path class="st7" d="M355.7,273.6l-10-49.9c0-.3,0-.6,0-.9,0,1,0,13.4,0,14,0,.2,0,.5,0,.8l10,49.9c0,.3.2.6.3.8v-13.9c-.1-.3-.2-.6-.3-.8Z"/>
            <path class="st5" d="M376.5,286.4c-1.4,0-2.5-.3-3.5-.8l-13.5-7.8c-1.8-1-3-2.1-3.5-3.3v13.9c.5,1.2,1.7,2.3,3.5,3.3l13.5,7.8c1,.5,2.1.8,3.5.8s.2,0,.4,0v-13.9c-.1,0-.2,0-.4,0Z"/>
            <path class="st10" d="M380,285.6c-.8.5-1.9.8-3.1.8v13.9c1.2,0,2.2-.3,3.1-.8l40.3-23.2v-13.9l-40.3,23.2Z"/>
            <path class="st5" d="M433.3,269.9l-13-7.5v13.9l13,7.5c.9.5,2.1.8,3.4.8v-13.9c-1.4,0-2.5-.3-3.4-.8Z"/>
          </g>
          <path class="st0" d="M440.2,269.9c-.9.5-2.1.8-3.5.8s-2.5-.3-3.5-.8l-13-7.5-40.3,23.2c-.9.5-2.1.8-3.5.8s-2.5-.3-3.5-.8l-13.5-7.8c-2.2-1.3-3.5-2.7-3.8-4.1l-10-49.9c-.2-1,0-1.8.2-2.3.3-.5,1.1-1.1,2.2-1.8l19.3-11.1c.9-.5,2.1-.8,3.5-.8s2.5.3,3.5.8l49.1,28.3,11-6.4c.9-.5,2.1-.8,3.5-.8s2.5.3,3.5.8l13.5,7.8c.9.5,1.4,1.2,1.4,2s-.5,1.4-1.4,2l-11,6.4,13,7.5c.9.5,1.4,1.2,1.4,2s-.5,1.5-1.4,2l-16.7,9.7h0ZM400.4,250.2l-23.5-13.6,4.9,24.3,18.7-10.8h0Z"/>
        </g>
      </g>
    </g>
  </g>
  <g id="Text">
    <g id="Text-2">
      <path class="st18" d="M352.1,376.5c.2-.1.5-.2.8-.2s.6,0,.8.2l3.3,1.9c.2.1.3.3.3.5s-.1.4-.3.5l-14.8,8.5c-.2.1-.5.2-.8.2s-.6,0-.8-.2l-20.2-11.6c-.2-.1-.3-.3-.3-.5s.1-.4.3-.5l14.6-8.4c.2-.1.5-.2.8-.2s.6,0,.8.2l3.3,1.9c.2.1.3.3.3.5s-.1.4-.3.5l-9.6,5.5,3.4,2,8.9-5.2c.2-.1.5-.2.8-.2s.6,0,.8.2l3.3,1.9c.2.1.3.3.3.5s-.1.4-.3.5l-8.9,5.2,3.5,2,9.9-5.7h0Z"/>
      <path class="st18" d="M357,360.6c.2-.1.5-.2.8-.2s.6,0,.8.2l3.1,1.8c.2.1.3.3.3.5s-.1.4-.3.5l-2.8,1.6c-1.9,1.1-1.9,2.2,0,3.3l7.7,4.4c.2.1.3.3.3.5s-.1.4-.3.5l-3.9,2.3c-.2.1-.5.2-.8.2s-.6,0-.8-.2l-14.6-8.4c-.2-.1-.3-.3-.3-.5s.1-.4.3-.5l3.6-2.1c.2-.1.5-.2.8-.2s.6,0,.8.2l.7.4c0-.5.2-1.1.6-1.6.4-.6,1-1.1,2-1.6l1.9-1.1h0Z"/>
      <path class="st18" d="M372.1,351.9c.2-.1.5-.2.8-.2s.6,0,.8.2l3.1,1.8c.2.1.3.3.3.5s-.1.4-.3.5l-2.8,1.6c-1.9,1.1-1.9,2.2,0,3.3l7.7,4.4c.2.1.3.3.3.5s-.1.4-.3.5l-3.9,2.3c-.2.1-.5.2-.8.2s-.6,0-.8-.2l-14.6-8.4c-.2-.1-.4-.3-.4-.5s.1-.4.3-.5l3.6-2.1c.2-.1.5-.2.8-.2s.6,0,.8.2l.7.4c0-.5.2-1.1.6-1.6.4-.6,1-1.1,2-1.6l1.9-1.1h0Z"/>
      <path class="st18" d="M399,344.4c.3.2.7.4,1.2.7.5.3.9.5,1.2.7,1,.6,1.7,1.3,2.1,2,.5.8.6,1.5.6,2.3,0,.8-.4,1.6-1.1,2.4-.7.8-1.6,1.6-2.9,2.3-1.3.7-2.6,1.3-4,1.7-1.4.4-2.8.6-4.2.6-1.4,0-2.7,0-4-.3-1.3-.3-2.5-.7-3.5-1.2-.3-.2-.7-.4-1.2-.7-.5-.3-.9-.5-1.2-.7-1-.6-1.7-1.3-2.1-2-.5-.7-.6-1.5-.6-2.3,0-.8.5-1.6,1.1-2.4.6-.8,1.6-1.6,2.9-2.3,1.3-.7,2.6-1.3,4-1.7s2.8-.6,4.2-.6c1.4,0,2.7,0,4,.3s2.4.7,3.5,1.2h0ZM389.9,352.2c.9.4,1.8.6,2.7.6,1,0,1.9-.3,2.7-.8.8-.5,1.3-1,1.3-1.5s-.3-1.1-1-1.6c-.3-.2-.6-.4-1-.6-.4-.2-.8-.4-1.1-.6-.9-.4-1.8-.6-2.7-.6-1,0-1.9.3-2.7.8-.8.5-1.3,1-1.3,1.5s.3,1.1,1,1.6c.3.2.6.4,1,.6.4.2.8.4,1.1.6h0Z"/>
      <path class="st18" d="M407.1,331.7c.2-.1.5-.2.8-.2s.6,0,.8.2l3.1,1.8c.2.1.3.3.3.5s-.1.4-.3.5l-2.8,1.6c-1.9,1.1-1.9,2.2,0,3.3l7.7,4.4c.2.1.3.3.3.5s-.1.4-.3.5l-3.9,2.3c-.2.1-.5.2-.8.2s-.6,0-.8-.2l-14.6-8.4c-.2-.1-.4-.3-.4-.5s.1-.4.3-.5l3.6-2.1c.2-.1.5-.2.8-.2s.6,0,.9.2l.7.4c0-.5.2-1.1.6-1.6.4-.6,1-1.1,2-1.6l1.9-1.1h0Z"/>
    </g>
  </g>
  <g id="Speech_Bubble">
    <g id="Speech_Bubble-2">
      <g id="Speech_Bubble-3">
        <g>
          <path class="st2" d="M306.9,200.9c.9-4.1-15.7,5.5-16.6,9.6l5.3,14.4c.2.5.5.8.9,1.1,1.2.7,5.5,3.2,5.9,3.4,1.2.7,2.9.3,3.4-1.3l6.9-23.7c.4-2-5.9-3.4-5.9-3.4h0Z"/>
          <path class="st7" d="M306.9,200.9c.9-4.1-15.7,5.5-16.6,9.6l5.3,14.4c.2.5.5.8.9,1.1,1.2.7,5.5,3.2,5.9,3.4,1.2.7,2.9.3,3.4-1.3l6.9-23.7c.4-2-5.9-3.4-5.9-3.4h0Z"/>
        </g>
        <path class="st2" d="M358.7,93.2l-138.3,79.8c-1.2.7-2.2,2.4-2.2,3.9v76c0,1.4,1,3.1,2.2,3.8l1.4.8c1.2.7,3.2.7,4.4,0l138.3-79.9c1.2-.7,2.2-2.4,2.2-3.9v-75.9c0-1.4-1-3.1-2.2-3.8l-1.4-.8c-1.2-.7-3.2-.7-4.5,0h0Z"/>
        <path class="st7" d="M358.7,93.2l-138.3,79.8c-1.2.7-2.2,2.4-2.2,3.9v76c0,1.4,1,3.1,2.2,3.8l1.4.8c1.2.7,3.2.7,4.4,0l138.3-79.9c1.2-.7,2.2-2.4,2.2-3.9v-75.9c0-1.4-1-3.1-2.2-3.8l-1.4-.8c-1.2-.7-3.2-.7-4.5,0h0Z"/>
        <g>
          <path class="st2" d="M366.8,97.8v.9c0-1.6-1.7-2.6-3.1-1.8l-136.6,78.9c-.9.5-1.7,1.3-2.2,2.2,0,0,0,0,0,0l-6-3.5c.4-.7,1-1.3,1.6-1.7l138.3-79.8c1.2-.7,3.2-.7,4.5,0l1.4.8c1.2.7,2.2,2.4,2.2,3.8h0Z"/>
          <path class="st6" d="M366.8,97.8v.9c0-1.6-1.7-2.6-3.1-1.8l-136.6,78.9c-.9.5-1.7,1.3-2.2,2.2,0,0,0,0,0,0l-6-3.5c.4-.7,1-1.3,1.6-1.7l138.3-79.8c1.2-.7,3.2-.7,4.5,0l1.4.8c1.2.7,2.2,2.4,2.2,3.8h0Z"/>
        </g>
        <g>
          <path class="st12" d="M364.7,97.4c-.2,0-.4,0-.6.2l-136.6,78.9c-1.6.9-2.7,2.7-2.7,4.6v74.1c0,.4,0,1.4.9,1.4s.6-.1,1-.3l70.9-40.9,4.4,12.3c.9,1.9,3.7,1.8,4.3-.2l6-20.6,51-29.4c1.9-1.1,2.7-2.1,2.7-3.5v-75.2c0-.8-.6-1.2-1.2-1.2h0Z"/>
          <path class="st2" d="M225.7,257.4c-1,0-1.7-.9-1.7-2.2v-74.1c0-2.2,1.2-4.2,3.1-5.3l136.6-78.9c.3-.2.7-.3,1-.3,1,0,2,.8,2,2.1v75.2c0,2.2-1.8,3.4-3.1,4.2l-50.7,29.3-5.9,20.3c-.4,1.3-1.5,2.1-2.8,2.2s-2.5-.7-3-1.9l-4.1-11.4-70.1,40.4c-.5.3-.9.4-1.4.4h0ZM364.7,98.2c0,0-.1,0-.2,0l-136.6,78.9c-1.4.8-2.3,2.3-2.3,3.9v74.1c0,.4,0,.6.1.6,0,0,.2,0,.6-.2l71.7-41.4,4.8,13.2c.3.7.9.9,1.5.9.5,0,1.1-.3,1.4-1.1l6.1-20.9.3-.2,51-29.4c2-1.1,2.3-2.1,2.3-2.8v-75.2c0-.3-.3-.5-.5-.5h0Z"/>
        </g>
      </g>
      <g>
        <path class="st18" d="M240.3,200.4c0-2.4.4-4.8,1-7.1s1.4-4.6,2.5-6.8c1.1-2.1,2.4-4.1,3.9-5.9,1.5-1.8,3.3-3.2,5.3-4.4,2-1.1,3.7-1.7,5.3-1.7s2.8.5,3.9,1.4,1.9,2.2,2.5,3.9c.6,1.7.9,3.7,1,6,0,1.8,0,3.6,0,5.6s0,3.8,0,5.5c0,2.4-.4,4.8-1,7.1-.6,2.4-1.4,4.7-2.5,6.8-1.1,2.1-2.4,4.1-3.9,5.9s-3.3,3.2-5.3,4.4c-2,1.1-3.8,1.7-5.3,1.7-1.5,0-2.8-.4-3.9-1.4-1.1-.9-1.9-2.2-2.5-4s-.9-3.7-1-6c0-1.7,0-3.5,0-5.4s0-3.8,0-5.7h0ZM258.1,200.9c0-.8,0-1.6,0-2.5,0-.9,0-1.9,0-2.8s0-1.9,0-2.8c0-.9,0-1.7,0-2.4,0-1-.2-1.9-.4-2.6-.2-.7-.5-1.3-1-1.7-.4-.4-.9-.6-1.6-.6-.6,0-1.4.2-2.2.7s-1.6,1.1-2.2,1.8c-.6.7-1.1,1.5-1.6,2.4s-.7,1.8-1,2.8c-.2,1-.4,2-.4,3.1,0,.7,0,1.6-.1,2.5,0,.9,0,1.8,0,2.8s0,1.9,0,2.8c0,.9,0,1.7.1,2.4.1,2,.6,3.5,1.4,4.4.8.9,2.1.9,3.7-.1,1.7-1,2.9-2.4,3.7-4.2.8-1.8,1.3-3.8,1.4-6h0Z"/>
        <path class="st18" d="M290.9,179.9c0,.6,0,1.4,0,2.4s0,1.8,0,2.4c0,2-.4,4.1-.9,6.1-.5,2.1-1.3,4-2.2,5.9-.9,1.9-2.1,3.5-3.4,5.1-1.3,1.5-2.8,2.8-4.5,3.7-1.6.9-3.1,1.4-4.5,1.5s-2.5-.4-3.4-1.1-1.7-1.9-2.2-3.3c-.5-1.4-.8-3.1-.9-5.1,0-.6,0-1.4,0-2.4s0-1.8,0-2.4c0-2,.3-4,.9-6.1.5-2.1,1.3-4,2.2-5.9s2.1-3.6,3.4-5.1c1.3-1.5,2.8-2.8,4.5-3.7,1.6-.9,3.1-1.4,4.5-1.4s2.5.4,3.4,1.1c1,.8,1.7,1.9,2.2,3.3.5,1.4.8,3.1.9,5.1h0ZM276.2,192.9c0,1.5.5,2.6,1.1,3.1.7.5,1.5.5,2.6-.2,1.1-.6,2-1.6,2.6-2.9.7-1.3,1-2.7,1.1-4.4,0-.6,0-1.4,0-2.2s0-1.5,0-2.1c0-1.5-.5-2.6-1.1-3.1-.7-.5-1.5-.5-2.6.2-1.1.6-2,1.6-2.6,2.9-.7,1.3-1,2.7-1.1,4.4,0,.6,0,1.4,0,2.2s0,1.5,0,2.1h0Z"/>
        <path class="st18" d="M307.5,189.6c-.8.4-1.5.7-2.1.8-.6,0-1.1,0-1.5,0-.4-.1-.8-.3-1.1-.6-.3-.3-.5-.5-.7-.8v13.3c0,.5-.1.9-.3,1.4-.2.5-.5.8-.8.9l-5.1,2.9c-.3.2-.5.1-.8,0-.2-.2-.3-.5-.3-1v-40.9c0-.5.1-.9.3-1.4.2-.5.5-.8.8-.9l4.9-2.8c.3-.2.5-.1.8,0,.2.2.3.5.3,1v1.4c.2-.6.5-1.1.8-1.8.3-.6.6-1.2,1-1.8.4-.6.9-1.2,1.5-1.8.6-.6,1.4-1.1,2.2-1.6,1.2-.7,2.4-1.1,3.4-1.1,1.1,0,2,.3,2.8,1s1.5,1.8,2,3.3.8,3.5.8,5.9c0,.6,0,1.4,0,2.5s0,1.9,0,2.6c0,2.5-.3,4.8-.8,6.8s-1.1,3.9-2,5.6-1.8,3.1-2.8,4.3c-1.1,1.2-2.2,2.2-3.4,2.9h0ZM309.3,173.5c0-1.2,0-2.4,0-3.5,0-1.4-.4-2.5-.9-3.3-.5-.8-1.4-.8-2.7,0-.6.3-1.1.8-1.5,1.3-.4.5-.8,1.1-1.1,1.8s-.5,1.3-.7,2-.3,1.3-.3,2c0,.7,0,1.4,0,2.2s0,1.5,0,2.1c0,.6.2,1.1.3,1.6.2.5.4.9.7,1.2.3.3.6.5,1.1.5s.9-.1,1.5-.4c1.3-.7,2.2-1.8,2.7-3.2.5-1.4.9-2.8.9-4.3h0Z"/>
        <path class="st18" d="M332.3,164.9c0-.5-.1-.8-.3-.9-.2-.1-.5-.1-1,0-.5.1-1.1.3-1.9.6-.8.3-1.8.6-3,1-2,.6-3.6.4-4.7-.8-1.1-1.1-1.7-3.1-1.7-5.9s.2-2.9.7-4.3,1.1-2.9,1.9-4.3,1.8-2.7,3-3.9c1.2-1.2,2.5-2.2,3.9-3,1.4-.8,2.7-1.3,3.9-1.5,1.2-.2,2.2,0,3.1.2.9.3,1.5.9,2,1.6.5.8.8,1.7.8,2.7,0,.4,0,.9-.3,1.4-.2.5-.5.8-.8.9l-4.8,2.8c-.3.2-.5.2-.7.1-.2-.1-.4-.2-.6-.3s-.6-.1-1-.1c-.4,0-.9.2-1.6.6-.6.4-1.1.8-1.6,1.3-.4.5-.6,1.1-.6,1.7s0,.8.2.9c.1.2.4.2.8.1.4,0,1-.3,1.7-.5s1.7-.6,2.9-1c2.5-.8,4.2-.6,5.4.7,1.1,1.3,1.7,3.2,1.7,5.7s-.2,2.9-.7,4.4-1.1,3-2,4.4c-.9,1.4-2,2.8-3.2,4.1s-2.7,2.4-4.3,3.3c-1.6.9-3,1.5-4.3,1.6-1.2.1-2.3,0-3.1-.4s-1.5-1-1.9-1.8c-.5-.8-.7-1.7-.8-2.6,0-.4,0-.9.3-1.4s.5-.8.8-.9l5-2.9c.3-.2.5-.2.6,0,.1.1.3.3.5.4.2.1.5.2.9.2.4,0,1-.2,1.8-.7s1.5-1,2.1-1.7c.6-.7.9-1.3.9-1.9h0Z"/>
        <path class="st18" d="M350.6,149c0,.5-.1.9-.3,1.4-.2.5-.5.8-.8.9l-5.1,2.9c-.3.2-.5.1-.8,0-.2-.2-.3-.5-.3-1v-26.9c0-.5.1-.9.3-1.4.2-.5.5-.8.8-.9l5.1-2.9c.3-.2.5-.2.8,0s.3.5.3,1v26.9h0ZM350.6,162.4c0,.5-.1.9-.3,1.4-.2.5-.5.8-.8.9l-5.1,2.9c-.3.2-.5.1-.8,0-.2-.2-.3-.5-.3-1v-6.3c0-.5.1-.9.3-1.4.2-.5.5-.8.8-.9l5.1-2.9c.3-.2.5-.1.8,0,.2.2.3.5.3,1v6.3Z"/>
      </g>
    </g>
  </g>
  <g id="Logo">
    <circle class="st19" cx="439.3" cy="50.3" r="37.8"/>
    <path class="st12" d="M446.8,68.2c-2.6,3.4-6.5,5.5-10.8,6.1-4.3.6-8.6-.5-12.1-3-3.9-2.8-6.3-7-6.8-11.8-.4-4,.5-8.2,2.6-11h0s0-.1,0-.1c1.1-1.5,3.2-1.8,4.6-.7,0,0,0,0,0,0-.9.9-1.5,1.7-1.9,2.3-.5.8-1.1,1.7-1.6,2.9,0,0-.4,1.1-.6,2.3-.2,1.5-.6,9.3,5.3,13.6,3.3,2.4,6.7,2.5,7.8,2.5,3.9,0,6.6-1.6,7.2-2,.7-.4,2.3-1.5,3.7-3.5.6-.9,2.3-3.4,2.5-6.8.1-1.5-.1-2.9-.3-3.6-.2-1.2-.6-2.1-.9-2.9-.2-.6-.7-1.5-1.5-3.1-.6-1.2-.9-1.8-1.4-2.7-.5-1-1-1.9-1.4-2.5.4-.2.9-.1,1.3.1l6.1,4.4c.8.6.7,1.8-.2,2.3,1,2.1,1.5,4.4,1.5,6.7,0,3.8-1.1,7.5-3.4,10.4h0s0,0,0,0Z"/>
    <path class="st12" d="M454.1,52.8c.6-.8,1.1-1.5,1.4-2,.4-.7,1-1.6,1.5-2.8.3-.6.7-1.7.9-3.1.2-1,.2-2.1.2-3.1s-.2-2.1-.6-3.1-.7-2-1.3-2.9c-.5-.9-1.2-1.8-2-2.6-.8-.8-1.7-1.5-2.6-2.1-.9-.6-1.9-1-3-1.4-1-.3-2.1-.5-3.1-.6-1,0-2.1,0-3.1.2-1,.2-2,.5-3,.9-1,.4-1.9,1-2.8,1.6-.9.7-1.7,1.4-2.4,2.3-.7.9-1.3,1.8-1.8,2.8-.5,1-.8,2-1,3.1-.2,1-.3,2.1-.2,3.1,0,1.5.4,2.6.5,3.1.2.8.5,1.5,1.2,2.8.6,1.3,1.1,2.3,1.6,3.2.9,1.8,1.7,3.2,2.1,4.1-.4.2-.9.1-1.3-.2l-6.1-4.4c-.8-.6-.7-1.9.2-2.3-.9-2.1-1.5-4.4-1.5-6.7,0-3.8,1.1-7.5,3.4-10.4,5.4-6.9,15.6-8.3,22.9-3.1h0c3.5,2.5,5.8,6.2,6.6,10.4s0,8.6-2.3,12.2c-1,1.6-3.1,2-4.6,1h0s0,0,0,0Z"/>
    <path class="st12" d="M454.1,52.8c-1.6-1-2-3.1-1-4.6,2.9-4.5,1.8-10.5-2.6-13.6h0c-4.3-3.1-10.5-2.3-13.7,1.8-2.2,2.9-2.6,6.9-1.1,10.2l.8-.3c.9-.4,2,.3,1.9,1.4l-.8,7.5c0,.5-.4.9-.8,1.1-.5-.9-1.2-2.3-2.1-4.1-.4-.9-1-1.8-1.6-3.2-.6-1.3-.9-2-1.2-2.8-.1-.5-.4-1.6-.5-3.1,0-1,0-2.1.2-3.1.2-1,.5-2.1,1-3.1.5-1,1.1-2,1.8-2.8.7-.9,1.5-1.6,2.4-2.3.9-.6,1.8-1.2,2.8-1.6,1-.4,2-.7,3-.9,1-.2,2.1-.2,3.1-.2,1.1,0,2.1.3,3.1.6,1,.3,2,.8,3,1.4,1,.6,1.8,1.3,2.6,2.1.8.8,1.4,1.6,2,2.6.5.9,1,1.9,1.3,2.9s.5,2,.6,3.1c0,1,0,2.1-.2,3.1-.2,1.4-.7,2.4-.9,3.1-.5,1.3-1.1,2.2-1.5,2.8-.4.5-.8,1.2-1.4,2h0s0,0,0,0Z"/>
    <path class="st12" d="M444.4,65.9c-1.4,2-3,3.1-3.7,3.5-.6.4-3.3,2-7.2,2-1,0-4.5,0-7.8-2.5-5.9-4.3-5.5-12.1-5.3-13.6.2-1.2.6-2.3.6-2.3.5-1.2,1-2.1,1.6-2.9.4-.6,1.1-1.5,1.9-2.3,1.5,1.1,1.8,3.2.7,4.7h0c-.9,1.3-1.6,3.7-1.4,6.5.2,2,1.1,4.9,4,7,4.3,3.1,10.5,2.2,13.7-1.8,2.2-2.9,2.6-6.8,1.1-10.2l-.8.4c-.9.4-2-.3-1.9-1.4l.8-7.5c0-.5.4-.9.8-1.1.4.6.8,1.5,1.4,2.5.5.8.8,1.5,1.4,2.7.8,1.7,1.2,2.5,1.5,3.1.3.8.7,1.7.9,2.9.1.7.4,2,.3,3.6-.2,3.5-1.8,5.9-2.5,6.8h0Z"/>
  </g>
  <g id="Character">
    <g id="Character-2">
      <g id="Arm">
        <path class="st16" d="M154.2,194.7c.7,1.5,1.4,3,1.6,4.6.7,3.9-.7,7.9-1.5,11.8-.3,1.3-.4,2.5.6,3.6.2.2.5.4.7.4.2,0,.4-.3.5-.5.9-1.6,1.7-3.3,2.2-5.1.1,1.7,0,3.4-.2,5.1-.2,1.3-.5,2.7,0,4s1.9,2.3,3,1.7c.8-.4,1.1-1.3,1.3-2.2.3-1,.6-2,.9-3,.4-1.4.9-2.8,1.1-4.2,1-5.2-.2-10.8-3.2-15-.8-1.1-1.8-2.2-3-2.7-1.2-.5-2.5-.4-3.6.2-.7.4-1,.7-.6,1.4h0Z"/>
        <path class="st15" d="M167,201.6c-.4-5.2-.6-10.8-1.6-15.7s-3.1-24.1-4-29.4c-1.2-7-2.9-11.4-3.9-15.7-1.1-4.8-2.1-11.5-4.1-22-2-10.5-4.5-16.4-9.7-19.8-4.8-3.1-8.8-3.9-13-4-1.2,3.2-.1,14.6-.1,14.6,0,0,5.1,24.2,5.5,27.1.5,3,5.9,16.6,9.5,27.6,2.1,6.4,5.1,15.3,5.1,15.3.9,3.9,1.3,5.2.5,8.3-.3,1.3-.9,2.6-1.2,3.9-.4,1.4-.6,2.9-.7,4.4,0,1,0,2,0,3,0,1.9-.4,3.7-.6,5.5-.2,1.4.6,2.2,2,1.8,1-.3,1.8-1.2,2.2-2.1.7-1.3.9-2.8,1.2-4.2.2-.7,1-4.8,2.3-3.7,1.1.9,2.3,4.2,3.8,6.4s2.2,3.6,2,6.9c-.2,3.4-1.9,7.8-1.3,10.7.5,2.8,2.1,3.4,2.7,2.3.6-1.2,2.3-8,2.9-10.4s1-5.8.6-10.7h0Z"/>
        <path class="st20" d="M154.1,197.9c6.1,2.7,13.7,4.1,17,17.1,3.3,13,7.2,60.8,7.2,60.8,0,0-4.3,6.3-13.3,6.3l.6,13.6s-8.9,4.3-22.2.9c-6.4-1.6-10.4-7.5-10.4-7.5,0,0,1.5-38.6,2.6-53.3,1.1-14.7,2.4-45.1,18.5-37.9h0Z"/>
        <path class="st1" d="M162.9,229.6s1.6,39,2.1,52.5c1.6,0,3.1-.2,4.4-.5l-6.5-51.9h0Z"/>
        <path class="st15" d="M149.2,199.1c0,1.9-.4,3.7-.6,5.5-.2,1.4.6,2.2,2,1.8,1-.3,1.8-1.2,2.2-2.1.7-1.3.9-2.8,1.2-4.2.1-.5.6-3.1,1.5-3.7l-6.2-.2c0,1,0,2,0,3h0ZM155.5,196.4h.8c-.3-.2-.6-.2-.8,0Z"/>
        <path class="st25" d="M136.2,94.2c9.9,4.1,13,7.3,14.9,13.3,1.9,6,4.9,21.1,5.9,27.7,1,6.6,3.5,12.5,4.9,21.1,1.4,8.6,2.8,21.1,2.8,21.1,0,0-1.8,2.3-7.2,2.6s-8.2-1.6-8.2-1.6c0,0-5.7-17.2-7.9-22.9s-7.1-20-7.1-20l2.1-41.3h0Z"/>
      </g>
      <g id="Bottom">
        <g>
          <g>
            <polygon points="51.8 332.9 58.4 334.9 59.4 330.1 54 330.6 51.8 332.9"/>
            <path class="st4" d="M53.6,319.6s-2.8,3.2-3.6,4.2c-.8,1,1.1,7.7,1.8,9.1l2.2-2.2c.2,1.7-.2,3.4-.5,5.9-.3,2.2-1.4,5.8-.5,9.6,1.3,5.6,5.7,11.2,11.1,15.7,5.4,4.5,9.7,5.6,12.2,5.6,2.5,0,4.1-1,4.8-2.7.7-1.7-27.5-45.2-27.5-45.2h0Z"/>
            <g>
              <path class="st20" d="M77.3,319.7l1.6-1.9c1.1.8-1,3.6-1.4,7.3-.5,4.9-.7,11.3.1,16.1,1.7,9.5,4.2,16.6,5,20.9,1,5.7-8.8,6.1-17.5-1.5-4.3-3.7-10.6-12.2-10.8-16.6s1.6-9.6,1.3-13c-.3-3.3-2.7-8.3-2-11.5.4-1.8,3-4.5,5.4-6.8,2.2-2.1,4-6.6,5.1-5.3l-.8,1.6c-.2,1.5.7,4.8,3.9,8.2,1.6,1.7,6.9,6,10.2,2.5h0Z"/>
              <path class="st9" d="M70,319.6c1.9,1.2,4.2,2,6.1,1,0,0,0,0,0,0,0,0-1.8,1.5-1.7,4.6.2,3.2.1,24.5.1,24.5,0,0-1-18.5-1.3-22-.3-5.2-.9-6.2-3.3-8.2h0,0Z"/>
            </g>
            <path class="st1" d="M82.6,362.1c-.6-3.6-2.5-9.2-4.1-16.6-.2,2.3.3,4.6,0,5.2-.6,1.5-5.7.4-8.5-.7s-2.8-6.4-3.9-12c-1.1-5.5-6.7-4.4-11-1.1-.4,2.4-.9,4.9-.8,7.2.2,4.4,6.5,12.9,10.8,16.6,8.7,7.5,18.4,7.1,17.5,1.5h0Z"/>
            <g>
              <path class="st9" d="M69.5,324.9c-.3.3-.7.3-1,0-.3-.3-.3-.7,0-1s.7-.3,1,0c.3.3.3.7,0,1Z"/>
              <path class="st9" d="M69.9,330c-.3.3-.7.3-1,0-.3-.3-.3-.7,0-1,.3-.3.7-.3,1,0,.3.3.3.7,0,1Z"/>
              <path class="st9" d="M70.3,335c-.3.3-.7.3-1,0-.3-.3-.3-.7,0-1,.3-.3.7-.3,1,0,.3.3.3.7,0,1Z"/>
              <path class="st9" d="M70.7,340c-.3.3-.7.3-1,0-.3-.3-.3-.7,0-1,.3-.3.7-.3,1,0,.3.3.3.7,0,1Z"/>
              <path class="st9" d="M71.1,345.1c-.3.3-.7.3-1,0s-.3-.7,0-1c.3-.3.7-.3,1,0,.3.3.3.7,0,1Z"/>
            </g>
            <path class="st4" d="M68.8,324.6s0-.1,0-.2c0-.2,0-.3.2-.3.2,0,4.9-.5,8.2,2.4h0c.1.1.1.3,0,.4,0,.1-.3.1-.4,0-3.2-2.7-7.7-2.2-7.8-2.2,0,0-.2,0-.2,0h0Z"/>
            <path class="st4" d="M69.2,329.7s0-.1,0-.2c0-.2,0-.3.2-.3.2,0,4.9-.5,8.2,2.4h0c.1.1.1.3,0,.4,0,.1-.3.1-.4,0-3.2-2.7-7.7-2.2-7.8-2.2,0,0-.2,0-.2,0h0Z"/>
            <path class="st4" d="M69.6,334.7s0-.1,0-.2c0-.2,0-.3.2-.3.2,0,4.9-.5,8.2,2.4h0c.1.1.1.3,0,.4,0,.1-.3.1-.4,0-3.2-2.7-7.7-2.2-7.8-2.2,0,0-.2,0-.2,0h0Z"/>
            <path class="st4" d="M70,339.8s0-.1,0-.2c0-.2,0-.3.2-.3.2,0,4.9-.5,8.2,2.4h0c.1.1.1.3,0,.4,0,.1-.3.1-.4,0-3.2-2.7-7.7-2.2-7.8-2.2,0,0-.2,0-.2,0Z"/>
            <path class="st4" d="M70.4,344.8s0-.1,0-.2c0-.2,0-.3.2-.3.2,0,4.9-.5,8.2,2.4h0c.1.1.1.3,0,.4,0,.1-.3.1-.4,0-3.2-2.7-7.7-2.2-7.8-2.2,0,0-.2,0-.2,0h0Z"/>
          </g>
          <path class="st4" d="M144.4,173.9s.7,12.5.1,38.5c-.5,21.7,1.9,33-6.8,46.8-7.8,12.4-56.4,59.5-59.9,63.8,0,0-15.4,1.4-16.1-14.4,0,0,14.3-25.6,21.1-40.1,6.8-14.5,16-21.5,16-21.5l-12.6-63.3,58.3-9.9h0Z"/>
          <path d="M91.4,182.9l-5.3.9v.2l12.2,61,.4,1.5h0s0,0,0,0v.5c0,0-6.5,5-12.6,15.2,2.1,5.5,6.4,15.1,6.4,15.1.4,1.5-3.9,7.6-1.5,26,.2,1.3.5,3.2.9,5.3,10.9-11,25.8-26.1,35.9-37.2.5-2.9,1.9-12.3,1.1-19.5-.8-7.2-4.1-42.6-4.1-42.6,0,0,3.8-2.1,8.1-7.4,3.1-3.9,3.8-8.2,3.8-8.2,0,0,3-8.4,4.2-14.5l-49.2,3.8h0Z"/>
        </g>
        <g>
          <polygon points="110.6 384.7 117.1 382.6 115.2 378.1 111.1 381.6 110.6 384.7"/>
          <path class="st4" d="M104.4,372.8s-.4,4.2-.6,5.5,5.3,5.7,6.7,6.4l.5-3.1c1.2,1.3,1.8,2.8,3,5.1,1,1.9,2.2,5.6,5.1,8.1,4.3,3.8,11.1,5.9,18.1,6.5,7,.6,11.1-1,13.2-2.4,2.1-1.4,2.8-3.2,2.4-5s-48.4-21.1-48.4-21.1h0Z"/>
          <g>
            <path class="st20" d="M123.8,359.3l.2-2.4c1.3,0,1.3,3.5,3.1,6.7,2.4,4.3,5.9,9.6,9.4,13.1,6.9,6.8,13.1,11.2,16.1,14.2,4.1,4.1-3.7,10-15.1,8.9-5.7-.6-15.7-3.9-18.4-7.4s-4.2-8.8-6.4-11.4c-2.2-2.5-7-5.2-8.2-8.2-.7-1.7-.1-5.5.5-8.7.6-3-.6-7.7,1.1-7.3l.2,1.7c.6,1.3,3.3,3.5,7.9,4.5,2.3.5,9.1,1,9.7-3.8h0Z"/>
            <path class="st9" d="M117.8,363.4c2.2,0,4.6-.7,5.6-2.7,0,0,0,0,0,0,0,0-.7,2.2,1.3,4.7s14.2,20,14.2,20c0,0-11.5-14.5-13.7-17.2-3.3-4-4.3-4.5-7.4-4.8h0Z"/>
          </g>
          <path class="st1" d="M152.6,390.9c-2.6-2.6-7.4-6.1-13-11.2,1.1,2,2.9,3.6,3,4.2.4,1.6-4.4,3.6-7.4,4.3-2.9.6-6-3.6-10.1-7.5-4.1-3.9-8,.3-9.7,5.4,1,2.2,2.1,4.5,3.5,6.3,2.7,3.5,12.7,6.8,18.4,7.4,11.5,1.1,19.2-4.8,15.1-8.9h0Z"/>
          <g>
            <path class="st9" d="M120.5,368c0,.4-.4.6-.8.6-.4,0-.7-.4-.6-.8s.4-.6.8-.6c.4,0,.7.4.6.8Z"/>
            <path class="st9" d="M123.7,371.9c0,.4-.4.6-.8.6-.4,0-.7-.4-.6-.8,0-.4.4-.6.8-.6.4,0,.7.4.6.8Z"/>
            <path class="st9" d="M126.9,375.8c0,.4-.4.6-.8.6-.4,0-.7-.4-.6-.8,0-.4.4-.6.8-.6.4,0,.7.4.6.8Z"/>
            <path class="st9" d="M130.2,379.7c0,.4-.4.6-.8.6s-.6-.4-.6-.8c0-.4.4-.6.8-.6s.6.4.6.8Z"/>
            <path class="st9" d="M133.4,383.6c0,.4-.4.6-.8.6s-.6-.4-.6-.8c0-.4.4-.6.8-.6s.6.4.6.8Z"/>
          </g>
          <path class="st4" d="M119.8,368.2c0,0-.1,0-.2,0-.1-.1,0-.3,0-.4.2-.1,3.7-3.2,8.1-2.8h0c.2,0,.3.2.2.3,0,.2-.2.3-.3.2-4.2-.4-7.6,2.6-7.6,2.7,0,0-.2,0-.2,0h0Z"/>
          <path class="st4" d="M123,372.1c0,0-.1,0-.2,0,0-.1,0-.3,0-.4.2-.1,3.7-3.2,8.1-2.8h0c.1,0,.3.2.2.3,0,.1-.1.3-.3.2-4.2-.4-7.6,2.6-7.6,2.7,0,0-.2,0-.2,0h0Z"/>
          <path class="st4" d="M126.2,376c0,0-.1,0-.2,0,0-.1,0-.3,0-.4.2-.1,3.7-3.2,8.1-2.8h0c.1,0,.3.2.2.3,0,.2-.1.3-.3.2-4.1-.4-7.6,2.6-7.6,2.7,0,0-.2,0-.2,0h0Z"/>
          <path class="st4" d="M129.4,379.9c0,0-.1,0-.2,0-.1-.1-.1-.3,0-.4.1-.1,3.7-3.2,8.1-2.8h0c.1,0,.3.2.2.3,0,.2-.1.3-.3.2-4.1-.4-7.6,2.6-7.6,2.7,0,0-.1,0-.2,0h0Z"/>
          <path class="st4" d="M132.7,383.8c0,0-.1,0-.2,0-.1-.1-.1-.3,0-.4.1-.1,3.7-3.2,8.1-2.8h0c.1,0,.3.2.2.3,0,.2-.1.3-.3.2-4.1-.4-7.6,2.6-7.6,2.7,0,0-.1,0-.2,0h0Z"/>
        </g>
        <path class="st4" d="M74.3,169.9s-.3,16-.3,23.2c.1,14.7,3,20.8,6.6,33.2,3,10.1,15.1,47,16,50.6-1.3,7.8-2.6,14.7,0,31.7,3.8,24.6,8.1,53.8,8.1,53.8,2.2,3.1,17.6,4.3,22.1-.3,0,0,1.3-78.6.8-94.7-.4-14-6.9-59.8-6.9-59.8,0,0,20.9-8.8,22.7-33.4l-69-4.3h0Z"/>
      </g>
      <g id="Top">
        <g id="Top-2">
          <g>
            <path class="st23" d="M103.6,198.1c-13.2,0-22-2.8-29.5-9.3,0-14.8.3-33.4.5-47v-4.8c.2-10.8.4-18,1.6-25.7.9-5.6,3.1-12.7,6.3-14.5,3.8-2.1,6.3-3.4,12.4-6,2.5-1.1,4.1-2.1,5.7-3.6,2.4.2,23.4,1.9,35.4,7.5,2.7,1.2,11.2,12.3,10.2,27.6-2.5,37.3-1.6,59.2-1.6,60.8-1,2.6-8.8,12.5-28.2,14.3-4.9.5-9.1.7-12.9.7h0Z"/>
            <path class="st17" d="M100.8,87.7c3.2.2,23.4,2,35,7.4,2.6,1.2,10.9,12.1,9.9,27.2-2.4,36.7-1.6,58.4-1.6,60.8-.4.9-2.2,3.8-6.5,6.8-3.8,2.7-10.6,6.2-21.2,7.2-4.8.5-9.1.7-12.8.7-12.9,0-21.6-2.7-29-9,0-14.7.3-33.2.5-46.7v-4.9c.2-10.8.4-17.9,1.6-25.6,1-5.9,3.2-12.6,6.1-14.2,3.8-2.1,6.3-3.4,12.3-5.9,2.4-1,4.1-2.1,5.7-3.5M100.4,86.7c-1.5,1.5-3.1,2.6-5.7,3.7-6.2,2.6-8.7,3.9-12.4,6-3.5,2-5.7,9.7-6.6,14.9-1.3,7.8-1.4,14.8-1.6,25.8-.2,14.2-.5,35.5-.5,52.1,7.7,6.8,16.6,9.6,30,9.6s8.2-.2,12.9-.7c20.5-1.9,27.9-12.8,28.6-14.7,0,0-1-21.8,1.6-60.9,1-15.5-7.6-26.8-10.5-28.1-12.9-6-35.8-7.5-35.8-7.5h0Z"/>
          </g>
          <g id="Head">
            <g>
              <g>
                <path class="st1" d="M100.8,42.6c-6.2,7-4.2,15.2-2,23.5,2.6,9.4,2.8,12.5,8.2,14.8-1.2-29.6,8.2,6.7,32-16.3,4.3-4.2,4.6-17-.6-22.9-7.4-8.3-25.4-12.4-37.6.8Z"/>
                <path class="st15" d="M99.6,75.5c4.3,1.8,6.3-1.2,6.3-1.2l-3.8,11s-2.4,6.8,3.1,10.2c15.4,9.2,11.9,13.1,17.1,17.6,1.8-2.2,1.5-12.1,1.8-14.7l3.4-10.6s2.8.1,5.3-.2c4.1-.6,6.4-3.5,7.7-7.9,2.1-7.1,1.8-17.8-.8-31.8-4.6-3.6-19.6-4.4-29.4,1.6.3,8.2-1.9,9.5-1.9,13s-.3,4.9-1.5,5.4c-1.2.5-2.3-1.3-2.8-2.5-.8-2-1.5-3.2-3.5-3.7-2-.5-4.1-.2-5.8,2.4-2.7,4,1.6,10.1,4.7,11.4h0Z"/>
                <path class="st16" d="M127.4,87.8c-4.9-.2-11.7-2.8-14.5-5.4-2.8-2.6-4.6-7.6-4.6-7.6,0,0,0,5,3.5,9.3,3.6,4.4,14.5,6.8,14.5,6.8,0,0,1-3.2,1-3.2Z"/>
                <path class="st16" d="M124.8,51.7c-.1,0-.3,0-.3.2s.1.2.2.2c.2,0,.3.2.5.3.2.1.3.2.4.4,0,.1,0,.3.1.4,0,.2,0,.5,0,.7,0,.2.2.3.3.2,0,0,.1-.1.2-.2.1-.3.2-.5.1-.8,0-.2,0-.3-.1-.4-.2-.5-.9-1-1.5-1h0ZM132.3,52c0-.3-.2-.6-.6-.5-.5.2-.9.7-1,1.2-.2.7-.2,1.6.4,2.2,0,0,.2.2.3,0,.2-.2,0-1,0-1.2,0-.3.1-.7.3-1,.1-.3.4-.5.5-.8h0ZM128.2,50.3c0,0-.2,0-.2,0,0,.2,0,.3.1.5.1.2.2.4.2.6.1.4.2.8.2,1.2,0,.4,0,.8,0,1.2,0,.4-.2.7-.2,1.1,0,0,0,.1,0,0,.7-.5.8-1.4.8-2.2,0-.5,0-.9-.2-1.3-.1-.4-.3-1-.7-1.2h0Z"/>
              </g>
              <g>
                <path class="st1" d="M119.5,55.2l4.4-1.7c.4,1.3-.2,2.7-1.4,3.1-1.2.5-2.6-.2-3-1.4Z"/>
                <path class="st1" d="M133.4,52.8l4.3,2.1c-.5,1.2-1.9,1.7-3.1,1.1-1.2-.6-1.7-2-1.1-3.2Z"/>
                <path class="st4" d="M123.9,59.7c-.4-1-1,.4-2.2.9-1.2.5-2.5-.1-2.1.9.4,1,1.7,1.4,2.9.9,1.2-.5,1.8-1.7,1.4-2.7Z"/>
                <path class="st4" d="M137.7,60.7c.2-1-1.1-.2-2.3-.5s-2-1.6-2.2-.5.6,2.1,1.8,2.4c1.2.3,2.5-.3,2.7-1.4h0Z"/>
                <path class="st16" d="M127.3,57.3l1.8,13,6.5-1.5c-1.4-3.8-5.4-9.8-8.3-11.5h0Z"/>
                <g>
                  <path class="st3" d="M124.3,73.3c-.3.2-.6.4-.7.7-.6.9.2,1.4,1.1,1.5.9,0,1.9.4,2.7.8.4.2.8.5,1.3.4.3,0,.6-.2.7-.4s.2-.6.1-.8c-.1-1-.9-2.1-2-2.5-1.1-.4-2.2-.3-3.2.3h0Z"/>
                  <path class="st16" d="M127.4,76.4c.2.1.4.2.6.3-.4-1.8-2-3.1-3.9-3.1-.2.2-.4.3-.5.6-.6.9.2,1.4,1.1,1.5.9,0,1.9.4,2.7.8h0Z"/>
                </g>
              </g>
            </g>
          </g>
        </g>
        <g>
          <g>
            <path class="st2" d="M120.5,119.5c-4.7-3.2-13.5-10.4-20.8-31.8l-2.9,2s4.6,21.9,22.9,33.1l.7-3.3h0Z"/>
            <path class="st2" d="M124.9,119.1c1.3-1.8,4.5-14.4,1.3-27.8l2.5,2.4c2.6,13.2-.2,25.4-2.7,29.1l-1.2-3.7h0Z"/>
            <path class="st2" d="M124.7,125.9s5.5,38.7,5.7,42.5-5.8,13.1-6.6,13.5-6.2-8.5-6.2-11.5c0-3,3.9-44.5,3.9-44.5h3.2s0,0,0,0Z"/>
            <path class="st2" d="M124.9,119.1s-2.3-.5-4.5.4c-.8,1.5-1.1,3.8-.5,4.9s1.9,2.8,3.4,2.7c1.5,0,2.8-2,3-3.9.2-2-1.4-4.2-1.4-4.2Z"/>
            <path class="st11" d="M124.9,119.1s-2.3-.5-4.5.4c-.8,1.5-1.1,3.8-.5,4.9s1.9,2.8,3.4,2.7c1.5,0,2.8-2,3-3.9.2-2-1.4-4.2-1.4-4.2Z"/>
          </g>
          <path class="st14" d="M122.2,113.1c-2.7-3.1-3.6-12.3-5.6-13.8-2-1.6-13.6-8.6-14.6-13.7l1.3-3.7c-1.4-.6-3.2,3.8-8.5,8.5,0,0-.6,5.3,3.4,11.4,4.7,7.2,8.9,9.6,8.9,9.6,0,0,5.8-7.5,6.7-7.8.9-.3,5.3,8.3,8.5,9.5Z"/>
          <path class="st14" d="M122.2,113.1c1.4-2.5,1.2-12.9,1.6-14.2.9-2.9,3.4-10.3,3.4-10.3,0,0,.7.5,1.1,1.1,4.8,6.2,4.6,15.1,3.3,17.8-1.4-2.9-4.7-6.7-5.2-5.9-.6.8-1.8,10.3-4.2,11.6h0Z"/>
        </g>
        <g>
          <g id="Briefcase">
            <g>
              <g>
                <path class="st1" d="M104.3,239.6l2.3,47.6c.1,2.3-1.4,3.7-3.4,5l-4.9,3.1c-1.3.9-2.1,1.2-3.9,1-.8,0-2.1-.6-2.7-1,0,0,0,0-.1,0h-.3c0-.1-52.7-27.2-52.7-27.2-3.8-2-6.3-5.9-6.6-10.2l-2.1-43.4c0-1,.6-2.2,1.4-2.8l8.3-5.4c.8-.5,2.2-.6,3.1-.1l59.7,30.7c.4.2.9.6,1.2,1.1.3.5.5,1,.5,1.5h0Z"/>
                <path class="st4" d="M104.3,239.6l2.3,47.6c.1,2.3-1.4,3.7-3.4,5l-4.9,3.1c-1.3.9-2.1,1.2-3.9,1-.8,0-2.1-.6-2.7-1h0c2,.8,3.6-.3,3.4-2.7l-2.2-44.9c0-.8-.3-1.6-.8-2.3l11.6-7.4c.3.5.5,1,.5,1.5h0Z"/>
              </g>
              <path class="st20" d="M93,247.8c0-1.5-1.2-3.3-2.6-4l-56.5-29c-2.2-1.1-4,0-3.8,2.5l2,40.6c.2,4.3,2.7,8.2,6.6,10.2l52.7,27c2.2,1.1,4,0,3.8-2.5l-2.2-44.9h0Z"/>
              <g>
                <path class="st2" d="M37.1,208.2l59.9,31.1c1.7.9,2.8,2.6,2.9,4.6l2.4,49-.9.6-2.4-49.5c0-1.6-1-3.1-2.4-3.8l-60.3-31.3.9-.6h0Z"/>
                <path class="st10" d="M99,241.2c.5.8.8,1.7.9,2.7l2.4,49-.9.6-2.4-49.5c0-.8-.3-1.6-.7-2.2l.8-.5h0Z"/>
                <path class="st10" d="M98.3,241.6c-.4-.7-1-1.2-1.7-1.6l-60.3-31.3.9-.6,59.9,31.1c.9.4,1.6,1.1,2.1,1.9"/>
              </g>
            </g>
            <g>
              <path class="st2" d="M58.1,213.3l.4,7.4-2.8,1.8-.5-9.8c0-.5.3-.7.8-.5,0,0,2.2,1.1,2.1,1.1Z"/>
              <path class="st8" d="M58.1,213.3l.4,7.4-2.8,1.8-.5-9.8c0-.5.3-.7.8-.5,0,0,2.2,1.1,2.1,1.1Z"/>
              <path class="st2" d="M78.7,219.6l.6,11.9-2.7,1.7-1.9-1-.5-9.8c0-.5-.4-1.1-.9-1.3l-14.5-7.4-3-1.5c-.5-.2-.8,0-.8.5l.5,9.8-1.9-1-.6-11.9v-.2c0-.5.3-1,.7-1.2l1.1-.7c.4-.3,1.1-.3,1.6,0l21.3,10.9c.4.2.8.8.9,1.3h0Z"/>
              <path class="st10" d="M76,221.3l.6,11.9-1.9-1-.5-9.8c0-.5-.4-1.1-.9-1.3l-14.5-7.4-3-1.5c-.5-.2-.8,0-.8.5l.5,9.8-1.9-1-.6-11.9v-.2c0-.4.4-.5.8-.3l21.3,10.9c.4.2.8.8.9,1.3h0Z"/>
            </g>
          </g>
          <g>
            <path class="st16" d="M66,212.1l9.1,4.7c-.1-1.4-.6-3.3-1.2-3.9-.9-1-5.1-5-6.3-4.6-.6.2-1.2,1.9-1.5,3.9Z"/>
            <path class="st16" d="M66,217.4c0,.3.2.6.3.8,1.2,2.6,3.9,4.5,3.9,4.5,1.1-.2,2.1-.9,2.9-1.7l-7-3.6h0Z"/>
            <path class="st15" d="M80,100.7c-6.6,2.9-11.3,7.9-14.8,18.7-3.3,10.6-7.6,23.5-9.2,34.6-1.7,11.2-3.1,34.5-3.5,41.7-.2,3-.5,5.8-.2,8.8.1,1.6.7,6.1,1.6,9.8.4,1.5,1.2,2.9,2.7,3.5.4.1.8.2,1.2.4.7.4,1,1.2,1.5,1.8.6.6,1.6.9,2.5.9.4,0,.8,0,1.2,0,1.5.2,2.6,1.5,4,2,1.2.4,2.1.5,3.3,0,.4-.2,1.2-.7,1.6-1,.3-.2,1-.9,1.2-1.1-2,.2-3.5-1.5-4.2-3-.8-1.7-1.4-3.9-1.4-5.8,0-.5,0-1,.2-1.4,0-.2.3-.4.5-.4s.4.2.6.5c.9,1.5,1.8,3.1,3.2,4.2.6.5,1.2.9,2,.8s1.5-.6,1.4-1.3c0-.3-.1-.6-.3-.8-1-2.1-1.8-4.3-2.4-6.6-.6-2.1-1.1-4.2-2.2-6.1-1.1-2-3.7-4.7-3.4-7,.5-3.9,7.7-34.4,7.7-34.4,0,0,8.7-26.7,10.8-33.8,2.6-8.7.8-20-5.6-25.1h0Z"/>
            <path class="st25" d="M82.3,96.3c-10.5,5.3-13.1,9.6-16,17.6-2.6,7.1-8.3,26.7-9.8,33.6-2.6,12.4-4,36.2-4,36.2,0,0,1.2,3.4,7.5,4.9s8.7-.4,8.7-.4l7-30.2s10.8-25.1,11.7-28.6c1.8-7.1,3.3-28.3-5.2-33.1h0Z"/>
          </g>
        </g>
      </g>
      <g>
        <path class="st20" d="M162.4,76.3c.2.7.4,1.4.7,2,.3.6.7,1.2,1.1,1.7,1,1.1,2.3,1.8,3.7,1.9,3.1.3,6.5-2.3,5.8-5.6,0-.3.2-.6.5-.6,2-.2,3.1-2.2,3.1-4.1,0-2.1-1.2-3.9-3.3-4.3-.4,0-.9,0-1.3,0-.4,0-.8.2-1.2.1-.8,0-.9-1.1-1.2-1.7-.9-1.5-2.7-2.4-4.4-2.1-1.1.2-2.1.8-2.7,1.6s-.9,1.9-1.1,3c0,.1-.3.5-.4.2-.6-1.9.7-4.1,2.4-5.1,1.9-1.1,4.4-.9,6.1.6.4.3.7.7,1,1.1.1.2.3.5.4.7,0,.1.2.7.3.7,0,0,.5,0,.6,0,.2,0,.5,0,.8,0,.6,0,1.1,0,1.7.2,2.3.6,3.5,2.6,3.6,4.9,0,2.3-1.3,4.5-3.6,5.1.4,3.7-3.2,6.4-6.7,6.4-1.7,0-3.4-.8-4.6-2-1.1-1.1-2.2-2.8-1.9-4.4,0-.3.6-.5.8-.2h0Z"/>
        <path class="st20" d="M149.9,71.4c1.5-.6,3.3-.7,4.9-1,.7-.1,1.4-.2,2.1-.3.7-.1,1.5-.3,2.3-.3.4,0,.1.5,0,.6-.8.3-1.6.4-2.4.6-.8.1-1.5.3-2.3.4-.7.1-1.4.2-2.2.3-.8.1-1.6.3-2.4.2-.2,0-.1-.4,0-.5Z"/>
        <path class="st20" d="M151.2,76c.3-.1.6-.1.9-.2.3,0,.7,0,1-.1.6,0,1.2,0,1.8,0,.6,0,1.2,0,1.8,0s1.4-.1,2.1,0c.3,0,0,.6-.2.6-.6.1-1.2.1-1.8.2-.6,0-1.2,0-1.8,0-.6,0-1.2,0-1.8.1-.3,0-.6,0-.8,0-.3,0-.9,0-1.2,0-.3,0,0-.5.1-.6h0Z"/>
      </g>
    </g>
  </g>
</svg>